<svg width="195" height="62" viewBox="0 0 195 62" fill="none" xmlns="http://www.w3.org/2000/svg">
<g clip-path="url(#clip0_232_18108)">
<path opacity="0.4" d="M26.3412 56.1294C26.3412 57.8881 26.1257 59.5987 25.7205 61.2337L20.0661 55.5622C19.7769 47.7866 13.5239 41.5147 5.77161 41.2247L0.117188 35.5532C1.74721 35.1468 3.45275 34.9307 5.20617 34.9307C16.8594 34.9307 26.3412 44.441 26.3412 56.1294Z" fill="#FFAB00"/>
<path opacity="0.4" d="M54.8676 35.5532L49.2131 41.2247C41.4609 41.5147 35.2078 47.7866 34.9187 55.5622L29.2643 61.2337C28.859 59.5987 28.6436 57.8881 28.6436 56.1294C28.6436 44.441 38.1253 34.9307 49.7786 34.9307C51.532 34.9307 53.2375 35.1468 54.8676 35.5532Z" fill="#FFAB00"/>
<path d="M54.8675 31.4447C53.2375 31.8511 51.5319 32.0672 49.7785 32.0672C38.2026 32.0672 28.7687 22.6825 28.6472 11.0995H26.3375C26.216 22.6825 16.7821 32.0672 5.20617 32.0672C3.45275 32.0672 1.74721 31.8511 0.117188 31.4447L5.77161 25.7732C13.5239 25.4832 19.7769 19.2113 20.0661 11.4357C20.0734 11.3248 20.0753 11.2121 20.0753 11.0995H15.4376L19.7106 7.56356L24.9267 3.24624L27.4923 1.1236L30.058 3.24624L35.2741 7.56356L39.5471 11.0995H34.9094C34.9094 11.2121 34.9113 11.3248 34.9186 11.4357C35.2078 19.2113 41.4608 25.4832 49.2131 25.7732L54.8675 31.4447Z" fill="#F6AB00"/>
</g>
<path d="M184.389 23.548C189.97 23.548 193.546 26.4912 193.546 31.1786C193.546 35.866 189.97 38.8092 184.389 38.8092H176.977V23.548H184.389ZM184.258 37.1087C188.597 37.1087 191.671 35.0811 191.671 31.1786C191.671 27.2761 188.597 25.2485 184.258 25.2485H178.808V37.1087H184.258Z" fill="#F6AB00"/>
<path d="M162.265 37.1087H173.951V38.8092H160.434V23.548H162.265V37.1087Z" fill="#F6AB00"/>
<path d="M143.742 37.1087H156.67V38.8092H141.911V23.548H156.452V25.2485H143.742V30.1975H154.512V31.8981H143.742V37.1087Z" fill="#F6AB00"/>
<path d="M120.548 33.6858C120.897 35.5172 122.358 36.2584 124.799 36.2584C126.718 36.2584 127.873 35.8006 129.072 34.8849L131.253 37.1741C129.53 38.7002 127.307 39.3107 124.559 39.3107C119.436 39.3107 116.449 36.8253 116.449 32.7701C116.449 28.715 119.392 26.2296 124.232 26.2296C128.593 26.2296 131.689 28.4098 131.689 32.6829C131.689 33.1626 131.667 33.446 131.58 33.6858H120.548ZM124.276 29.2382C122.423 29.2382 121.137 29.9141 120.657 31.3748L127.721 31.3312C127.263 29.9141 126.107 29.2382 124.276 29.2382Z" fill="#F6AB00"/>
<path d="M110.52 38.8092H106.225V26.731H110.52V28.9766C111.523 27.276 113.42 26.4476 115.578 26.4476V30.0231C113.005 30.0231 111.152 31.0041 110.52 32.9881V38.8092Z" fill="#F6AB00"/>
<path d="M96.0039 39.3107C91.1421 39.3107 88.0898 36.8034 88.0898 32.7701C88.0898 28.715 91.1421 26.2514 96.0039 26.2514C100.844 26.2514 103.896 28.715 103.896 32.7701C103.896 36.8034 100.844 39.3107 96.0039 39.3107ZM96.0039 35.9968C98.2059 35.9968 99.7974 34.8849 99.7974 32.7701C99.7974 30.6335 98.2059 29.5434 96.0039 29.5434C93.8019 29.5434 92.2104 30.6335 92.2104 32.7701C92.2104 34.8849 93.8019 35.9968 96.0039 35.9968Z" fill="#F6AB00"/>
<path d="M78.3567 35.6916C80.4061 35.6916 81.9758 34.9939 83.0441 33.3588L86.8594 35.321C85.4423 37.5665 82.3683 39.3107 78.2477 39.3107C72.492 39.3107 68.6113 36.3238 68.6113 31.1786C68.6113 26.0334 72.492 23.0465 78.4221 23.0465C82.3683 23.0465 85.4205 24.8343 86.794 27.0145L82.9569 28.9766C81.954 27.4069 80.4061 26.6656 78.3567 26.6656C75.2173 26.6656 73.1243 28.2572 73.1243 31.1786C73.1243 34.1001 75.2173 35.6916 78.3567 35.6916Z" fill="#F6AB00"/>
<defs>
<clipPath id="clip0_232_18108">
<rect width="60.3183" height="60.5" fill="white" transform="translate(0.117188 0.928589)"/>
</clipPath>
</defs>
</svg>
