<svg width="16" height="16" viewBox="0 0 16 16" fill="none" xmlns="http://www.w3.org/2000/svg">
<path d="M7.06592 8.47354C7.00344 8.41156 6.95384 8.33783 6.91999 8.25659C6.88615 8.17535 6.86872 8.08821 6.86872 8.0002C6.86872 7.9122 6.88615 7.82506 6.91999 7.74382C6.95384 7.66258 7.00344 7.58884 7.06592 7.52687L10.1259 4.47354C10.1884 4.41156 10.238 4.33783 10.2719 4.25659C10.3057 4.17535 10.3231 4.08821 10.3231 4.0002C10.3231 3.91219 10.3057 3.82506 10.2719 3.74382C10.238 3.66258 10.1884 3.58884 10.1259 3.52687C10.001 3.4027 9.83205 3.33301 9.65592 3.33301C9.4798 3.33301 9.31083 3.4027 9.18592 3.52687L6.12592 6.58687C5.75139 6.96187 5.54102 7.4702 5.54102 8.0002C5.54102 8.5302 5.75139 9.03854 6.12592 9.41354L9.18592 12.4735C9.3101 12.5967 9.4777 12.6661 9.65259 12.6669C9.74033 12.6674 9.8273 12.6506 9.90853 12.6174C9.98975 12.5842 10.0636 12.5353 10.1259 12.4735C10.1884 12.4116 10.238 12.3378 10.2719 12.2566C10.3057 12.1753 10.3231 12.0882 10.3231 12.0002C10.3231 11.9122 10.3057 11.8251 10.2719 11.7438C10.238 11.6626 10.1884 11.5888 10.1259 11.5269L7.06592 8.47354Z" fill="#374957" fill-opacity="0.5"/>
</svg>
