<svg width="16" height="16" viewBox="0 0 16 16" fill="none" xmlns="http://www.w3.org/2000/svg">
<path d="M10.2675 6.58687L7.20751 3.52687C7.0826 3.4027 6.91364 3.33301 6.73751 3.33301C6.56139 3.33301 6.39242 3.4027 6.26751 3.52687C6.20503 3.58884 6.15543 3.66258 6.12158 3.74382C6.08774 3.82506 6.07031 3.9122 6.07031 4.0002C6.07031 4.08821 6.08774 4.17535 6.12158 4.25659C6.15543 4.33783 6.20503 4.41156 6.26751 4.47354L9.33418 7.52687C9.39666 7.58885 9.44626 7.66258 9.48011 7.74382C9.51395 7.82506 9.53138 7.9122 9.53138 8.0002C9.53138 8.08821 9.51395 8.17535 9.48011 8.25659C9.44626 8.33783 9.39666 8.41156 9.33418 8.47354L6.26751 11.5269C6.14198 11.6515 6.0711 11.8209 6.07047 11.9978C6.06985 12.1748 6.13953 12.3447 6.26418 12.4702C6.38883 12.5957 6.55825 12.6666 6.73515 12.6672C6.91206 12.6679 7.08198 12.5982 7.20751 12.4735L10.2675 9.41354C10.642 9.03854 10.8524 8.53021 10.8524 8.0002C10.8524 7.4702 10.642 6.96187 10.2675 6.58687Z" fill="#374957" fill-opacity="0.5"/>
</svg>
