<svg width="11" height="10" viewBox="0 0 11 10" fill="none" xmlns="http://www.w3.org/2000/svg">
<path d="M0.625 2.36621C0.515625 2.36621 0.421875 2.33496 0.34375 2.27246C0.28125 2.19434 0.25 2.10059 0.25 1.99121V1.05371C0.25 0.944336 0.28125 0.858398 0.34375 0.795898C0.421875 0.717773 0.515625 0.678711 0.625 0.678711H10.375C10.4844 0.678711 10.5703 0.717773 10.6328 0.795898C10.7109 0.858398 10.75 0.944336 10.75 1.05371V1.99121C10.75 2.10059 10.7109 2.19434 10.6328 2.27246C10.5703 2.33496 10.4844 2.36621 10.375 2.36621H0.625ZM0.625 6.11621C0.515625 6.11621 0.421875 6.08496 0.34375 6.02246C0.28125 5.94434 0.25 5.85059 0.25 5.74121V4.80371C0.25 4.69434 0.28125 4.6084 0.34375 4.5459C0.421875 4.46777 0.515625 4.42871 0.625 4.42871H10.375C10.4844 4.42871 10.5703 4.46777 10.6328 4.5459C10.7109 4.6084 10.75 4.69434 10.75 4.80371V5.74121C10.75 5.85059 10.7109 5.94434 10.6328 6.02246C10.5703 6.08496 10.4844 6.11621 10.375 6.11621H0.625ZM0.625 9.86621C0.515625 9.86621 0.421875 9.83496 0.34375 9.77246C0.28125 9.69434 0.25 9.60059 0.25 9.49121V8.55371C0.25 8.44434 0.28125 8.3584 0.34375 8.2959C0.421875 8.21777 0.515625 8.17871 0.625 8.17871H10.375C10.4844 8.17871 10.5703 8.21777 10.6328 8.2959C10.7109 8.3584 10.75 8.44434 10.75 8.55371V9.49121C10.75 9.60059 10.7109 9.69434 10.6328 9.77246C10.5703 9.83496 10.4844 9.86621 10.375 9.86621H0.625Z" fill="#FFAB00"/>
</svg>
