<svg width="16" height="16" viewBox="0 0 16 16" fill="none" xmlns="http://www.w3.org/2000/svg">
<path d="M15.805 0.195679C15.68 0.0706986 15.5105 0.000488281 15.3337 0.000488281C15.1569 0.000488281 14.9874 0.0706986 14.8623 0.195679L8.00035 7.05768L1.13835 0.195679C1.01333 0.0706986 0.843789 0.000488281 0.667013 0.000488281C0.490236 0.000488281 0.320698 0.0706986 0.195679 0.195679C0.0706986 0.320698 0.000488281 0.490236 0.000488281 0.667013C0.000488281 0.843789 0.0706986 1.01333 0.195679 1.13835L7.05768 8.00035L0.195679 14.8623C0.0706986 14.9874 0.000488281 15.1569 0.000488281 15.3337C0.000488281 15.5105 0.0706986 15.68 0.195679 15.805C0.320698 15.93 0.490236 16.0002 0.667013 16.0002C0.843789 16.0002 1.01333 15.93 1.13835 15.805L8.00035 8.94301L14.8623 15.805C14.9874 15.93 15.1569 16.0002 15.3337 16.0002C15.5105 16.0002 15.68 15.93 15.805 15.805C15.93 15.68 16.0002 15.5105 16.0002 15.3337C16.0002 15.1569 15.93 14.9874 15.805 14.8623L8.94301 8.00035L15.805 1.13835C15.93 1.01333 16.0002 0.843789 16.0002 0.667013C16.0002 0.490236 15.93 0.320698 15.805 0.195679Z" fill="#FFAB00"/>
</svg>
