<svg width="16" height="12" viewBox="0 0 16 12" fill="none" xmlns="http://www.w3.org/2000/svg">
<path d="M14.6658 8.12267V3.33333C14.6647 2.4496 14.3132 1.60237 13.6883 0.97748C13.0634 0.352588 12.2162 0.00105857 11.3325 0H4.66578C3.78205 0.00105857 2.93482 0.352588 2.30993 0.97748C1.68504 1.60237 1.33351 2.4496 1.33245 3.33333V8.12267C0.887997 8.27921 0.513289 8.58801 0.274692 8.99436C0.0360963 9.4007 -0.0509892 9.87838 0.0288601 10.3428C0.108709 10.8072 0.350341 11.2283 0.710957 11.5317C1.07157 11.835 1.5279 12.0009 1.99912 12H13.9991C14.4703 12.0009 14.9267 11.835 15.2873 11.5317C15.6479 11.2283 15.8895 10.8072 15.9694 10.3428C16.0492 9.87838 15.9621 9.4007 15.7235 8.99436C15.4849 8.58801 15.1102 8.27921 14.6658 8.12267ZM4.66578 1.33333H11.3325C11.8629 1.33333 12.3716 1.54405 12.7467 1.91912C13.1217 2.29419 13.3325 2.8029 13.3325 3.33333V8H10.5651C10.3712 7.99987 10.1796 8.04204 10.0037 8.12356C9.82775 8.20508 9.67171 8.32399 9.54645 8.472L9.38179 8.66667H6.61579L6.45179 8.472C6.32652 8.32399 6.17049 8.20508 5.99455 8.12356C5.81862 8.04204 5.62702 7.99987 5.43312 8H2.66579V3.33333C2.66579 2.8029 2.8765 2.29419 3.25157 1.91912C3.62664 1.54405 4.13535 1.33333 4.66578 1.33333ZM13.9991 10.6667H1.99912C1.82231 10.6667 1.65274 10.5964 1.52771 10.4714C1.40269 10.3464 1.33245 10.1768 1.33245 10C1.33245 9.82319 1.40269 9.65362 1.52771 9.52859C1.65274 9.40357 1.82231 9.33333 1.99912 9.33333H5.43379L5.59778 9.528C5.72297 9.67593 5.8789 9.79479 6.05472 9.8763C6.23053 9.95782 6.422 10 6.61579 10H9.38179C9.57569 10.0001 9.76729 9.95796 9.94322 9.87644C10.1192 9.79493 10.2752 9.67601 10.4005 9.528L10.5651 9.33333H13.9991C14.1759 9.33333 14.3455 9.40357 14.4705 9.52859C14.5955 9.65362 14.6658 9.82319 14.6658 10C14.6658 10.1768 14.5955 10.3464 14.4705 10.4714C14.3455 10.5964 14.1759 10.6667 13.9991 10.6667Z" fill="#706E7E"/>
</svg>
