<svg width="26" height="24" viewBox="0 0 26 24" fill="none" xmlns="http://www.w3.org/2000/svg">
<path fill-rule="evenodd" clip-rule="evenodd" d="M24.7009 3.64541C24.8875 3.73283 25.052 3.86031 25.1826 4.01859C25.3138 4.17659 25.4078 4.36146 25.4581 4.55987C25.5083 4.75827 25.5135 4.96526 25.4731 5.16587L23.7998 13.4553C23.7357 13.7684 23.5645 14.0499 23.315 14.2523C23.0656 14.4546 22.7532 14.5654 22.4308 14.5658H8.38938L8.71708 16.4079H22.812C23.0585 16.4079 23.295 16.5049 23.4694 16.6777C23.6437 16.8504 23.7416 17.0847 23.7416 17.3289C23.7416 17.5732 23.6437 17.8075 23.4694 17.9802C23.295 18.153 23.0585 18.25 22.812 18.25H7.93733C7.71874 18.25 7.50713 18.1738 7.33967 18.0346C7.1722 17.8954 7.05959 17.7022 7.02161 17.489L4.36857 2.59211H1.42967C1.1831 2.59211 0.946639 2.49507 0.772293 2.32234C0.597947 2.1496 0.5 1.91533 0.5 1.67105C0.5 1.42677 0.597947 1.1925 0.772293 1.01977C0.946639 0.847039 1.1831 0.75 1.42967 0.75H5.14833C5.36691 0.749955 5.57852 0.826217 5.74599 0.965393C5.91346 1.10457 6.02607 1.29775 6.06405 1.51102L6.42023 3.51316H24.1042C24.3106 3.51281 24.5144 3.55798 24.7009 3.64541ZM8.9375 23.25C9.97303 23.25 10.8125 22.4105 10.8125 21.375C10.8125 20.3395 9.97303 19.5 8.9375 19.5C7.90197 19.5 7.0625 20.3395 7.0625 21.375C7.0625 22.4105 7.90197 23.25 8.9375 23.25ZM22.0625 23.25C23.098 23.25 23.9375 22.4105 23.9375 21.375C23.9375 20.3395 23.098 19.5 22.0625 19.5C21.027 19.5 20.1875 20.3395 20.1875 21.375C20.1875 22.4105 21.027 23.25 22.0625 23.25Z" fill="#353535"/>
</svg>
