<svg width="12" height="12" viewBox="0 0 12 12" fill="none" xmlns="http://www.w3.org/2000/svg">
<g clip-path="url(#clip0_4493_11650)">
<path d="M12 8V12H8C7.29855 11.9993 6.60962 11.8141 6.00233 11.4631C5.39503 11.112 4.89073 10.6075 4.54 10C4.91693 9.9973 5.29259 9.95575 5.661 9.876C5.94158 10.2268 6.2975 10.51 6.70239 10.7046C7.10729 10.8992 7.55078 11.0001 8 11H11V8C10.9999 7.55062 10.8986 7.10703 10.7037 6.70212C10.5088 6.29721 10.2252 5.94138 9.874 5.661C9.95442 5.29266 9.99665 4.917 10 4.54C10.6075 4.89073 11.112 5.39503 11.4631 6.00233C11.8141 6.60962 11.9993 7.29855 12 8ZM9 4.5C9 3.30653 8.52589 2.16193 7.68198 1.31802C6.83807 0.474106 5.69347 0 4.5 0C3.30653 0 2.16193 0.474106 1.31802 1.31802C0.474106 2.16193 0 3.30653 0 4.5L0 9H4.5C5.69307 8.99868 6.83689 8.52415 7.68052 7.68052C8.52415 6.83689 8.99868 5.69307 9 4.5ZM1 4.5C1 3.80777 1.20527 3.13108 1.58986 2.5555C1.97444 1.97993 2.52107 1.53133 3.16061 1.26642C3.80015 1.00151 4.50388 0.932203 5.18282 1.06725C5.86175 1.2023 6.48539 1.53564 6.97487 2.02513C7.46436 2.51461 7.7977 3.13825 7.93275 3.81718C8.0678 4.49612 7.99849 5.19985 7.73358 5.83939C7.46867 6.47893 7.02007 7.02556 6.4445 7.41014C5.86892 7.79473 5.19223 8 4.5 8H1V4.5Z" fill="#FFAB00"/>
</g>
<defs>
<clipPath id="clip0_4493_11650">
<rect width="12" height="12" fill="white"/>
</clipPath>
</defs>
</svg>
