<svg width="16" height="17" viewBox="0 0 16 17" fill="none" xmlns="http://www.w3.org/2000/svg">
<g clip-path="url(#clip0_5007_19460)">
<path d="M8.66732 13.6058C9.55105 13.6047 10.3983 13.2532 11.0232 12.6283C11.6481 12.0034 11.9996 11.1562 12.0007 10.2725V4.43447C12.0017 4.08405 11.9332 3.7369 11.799 3.41315C11.6649 3.08941 11.4679 2.7955 11.2193 2.54847L9.72465 1.05381C9.47762 0.805255 9.18372 0.608208 8.85997 0.474086C8.53623 0.339964 8.18908 0.271436 7.83865 0.272473H4.66732C3.78359 0.273531 2.93636 0.625061 2.31146 1.24995C1.68657 1.87484 1.33504 2.72208 1.33398 3.60581V10.2725C1.33504 11.1562 1.68657 12.0034 2.31146 12.6283C2.93636 13.2532 3.78359 13.6047 4.66732 13.6058H8.66732ZM2.66732 10.2725V3.60581C2.66732 3.07537 2.87803 2.56667 3.2531 2.19159C3.62818 1.81652 4.13688 1.60581 4.66732 1.60581C4.66732 1.60581 7.94665 1.61514 8.00065 1.62181V2.93914C8.00065 3.29276 8.14113 3.6319 8.39118 3.88195C8.64122 4.132 8.98036 4.27247 9.33398 4.27247H10.6513C10.658 4.32647 10.6673 10.2725 10.6673 10.2725C10.6673 10.8029 10.4566 11.3116 10.0815 11.6867C9.70646 12.0618 9.19775 12.2725 8.66732 12.2725H4.66732C4.13688 12.2725 3.62818 12.0618 3.2531 11.6867C2.87803 11.3116 2.66732 10.8029 2.66732 10.2725ZM14.6673 5.60581V12.9391C14.6663 13.8229 14.3147 14.6701 13.6898 15.295C13.0649 15.9199 12.2177 16.2714 11.334 16.2725H5.33398C5.15717 16.2725 4.9876 16.2022 4.86258 16.0772C4.73756 15.9522 4.66732 15.7826 4.66732 15.6058C4.66732 15.429 4.73756 15.2594 4.86258 15.1344C4.9876 15.0094 5.15717 14.9391 5.33398 14.9391H11.334C11.8644 14.9391 12.3731 14.7284 12.7482 14.3534C13.1233 13.9783 13.334 13.4696 13.334 12.9391V5.60581C13.334 5.42899 13.4042 5.25943 13.5292 5.1344C13.6543 5.00938 13.8238 4.93914 14.0007 4.93914C14.1775 4.93914 14.347 5.00938 14.4721 5.1344C14.5971 5.25943 14.6673 5.42899 14.6673 5.60581Z" fill="#FFAB00"/>
</g>
<defs>
<clipPath id="clip0_5007_19460">
<rect width="16" height="16" fill="white" transform="translate(0 0.272461)"/>
</clipPath>
</defs>
</svg>
