<svg width="16" height="20" viewBox="0 0 16 20" fill="none" xmlns="http://www.w3.org/2000/svg">
<g clip-path="url(#clip0_14_20819)">
<path d="M4.66667 2H2.66667C1.95942 2 1.28115 2.28095 0.781049 2.78105C0.280952 3.28115 0 3.95942 0 4.66667L0 6.66667C0 7.37391 0.280952 8.05219 0.781049 8.55229C1.28115 9.05238 1.95942 9.33333 2.66667 9.33333H4.66667C5.37391 9.33333 6.05219 9.05238 6.55229 8.55229C7.05238 8.05219 7.33333 7.37391 7.33333 6.66667V4.66667C7.33333 3.95942 7.05238 3.28115 6.55229 2.78105C6.05219 2.28095 5.37391 2 4.66667 2V2ZM6 6.66667C6 7.02029 5.85952 7.35943 5.60948 7.60948C5.35943 7.85952 5.02029 8 4.66667 8H2.66667C2.31304 8 1.97391 7.85952 1.72386 7.60948C1.47381 7.35943 1.33333 7.02029 1.33333 6.66667V4.66667C1.33333 4.31304 1.47381 3.97391 1.72386 3.72386C1.97391 3.47381 2.31304 3.33333 2.66667 3.33333H4.66667C5.02029 3.33333 5.35943 3.47381 5.60948 3.72386C5.85952 3.97391 6 4.31304 6 4.66667V6.66667Z" fill="#374957"/>
<path d="M13.3332 2H11.3332C10.626 2 9.94771 2.28095 9.44761 2.78105C8.94752 3.28115 8.66656 3.95942 8.66656 4.66667V6.66667C8.66656 7.37391 8.94752 8.05219 9.44761 8.55229C9.94771 9.05239 10.626 9.33334 11.3332 9.33334H13.3332C14.0405 9.33334 14.7187 9.05239 15.2188 8.55229C15.7189 8.05219 15.9999 7.37391 15.9999 6.66667V4.66667C15.9999 3.95942 15.7189 3.28115 15.2188 2.78105C14.7187 2.28095 14.0405 2 13.3332 2V2ZM14.6666 6.66667C14.6666 7.02029 14.5261 7.35943 14.276 7.60948C14.026 7.85953 13.6868 8 13.3332 8H11.3332C10.9796 8 10.6405 7.85953 10.3904 7.60948C10.1404 7.35943 9.9999 7.02029 9.9999 6.66667V4.66667C9.9999 4.31305 10.1404 3.97391 10.3904 3.72386C10.6405 3.47381 10.9796 3.33333 11.3332 3.33333H13.3332C13.6868 3.33333 14.026 3.47381 14.276 3.72386C14.5261 3.97391 14.6666 4.31305 14.6666 4.66667V6.66667Z" fill="#374957"/>
<path d="M4.66667 10.6667H2.66667C1.95942 10.6667 1.28115 10.9476 0.781049 11.4477C0.280952 11.9478 0 12.6261 0 13.3333L0 15.3333C0 16.0406 0.280952 16.7189 0.781049 17.2189C1.28115 17.719 1.95942 18 2.66667 18H4.66667C5.37391 18 6.05219 17.719 6.55229 17.2189C7.05238 16.7189 7.33333 16.0406 7.33333 15.3333V13.3333C7.33333 12.6261 7.05238 11.9478 6.55229 11.4477C6.05219 10.9476 5.37391 10.6667 4.66667 10.6667ZM6 15.3333C6 15.687 5.85952 16.0261 5.60948 16.2761C5.35943 16.5262 5.02029 16.6667 4.66667 16.6667H2.66667C2.31304 16.6667 1.97391 16.5262 1.72386 16.2761C1.47381 16.0261 1.33333 15.687 1.33333 15.3333V13.3333C1.33333 12.9797 1.47381 12.6406 1.72386 12.3905C1.97391 12.1405 2.31304 12 2.66667 12H4.66667C5.02029 12 5.35943 12.1405 5.60948 12.3905C5.85952 12.6406 6 12.9797 6 13.3333V15.3333Z" fill="#374957"/>
<path d="M13.3332 10.6667H11.3332C10.626 10.6667 9.94771 10.9476 9.44761 11.4477C8.94752 11.9478 8.66656 12.6261 8.66656 13.3333V15.3333C8.66656 16.0406 8.94752 16.7189 9.44761 17.2189C9.94771 17.719 10.626 18 11.3332 18H13.3332C14.0405 18 14.7187 17.719 15.2188 17.2189C15.7189 16.7189 15.9999 16.0406 15.9999 15.3333V13.3333C15.9999 12.6261 15.7189 11.9478 15.2188 11.4477C14.7187 10.9476 14.0405 10.6667 13.3332 10.6667ZM14.6666 15.3333C14.6666 15.687 14.5261 16.0261 14.276 16.2761C14.026 16.5262 13.6868 16.6667 13.3332 16.6667H11.3332C10.9796 16.6667 10.6405 16.5262 10.3904 16.2761C10.1404 16.0261 9.9999 15.687 9.9999 15.3333V13.3333C9.9999 12.9797 10.1404 12.6406 10.3904 12.3905C10.6405 12.1405 10.9796 12 11.3332 12H13.3332C13.6868 12 14.026 12.1405 14.276 12.3905C14.5261 12.6406 14.6666 12.9797 14.6666 13.3333V15.3333Z" fill="#374957"/>
</g>
<defs>
<clipPath id="clip0_14_20819">
<rect width="16" height="16" fill="white" transform="translate(0 2)"/>
</clipPath>
</defs>
</svg>
