<svg width="16" height="16" viewBox="0 0 16 16" fill="none" xmlns="http://www.w3.org/2000/svg">
<g clip-path="url(#clip0_16_21055)">
<path d="M13.6381 3.03672L8.3241 0.084058C8.22501 0.0289512 8.11349 3.05176e-05 8.0001 3.05176e-05C7.88671 3.05176e-05 7.7752 0.0289512 7.6761 0.084058L2.3621 3.03672C2.05037 3.20992 1.79062 3.46331 1.60975 3.77066C1.42889 4.078 1.33349 4.42811 1.33344 4.78472V12.6667C1.33449 13.5505 1.68602 14.3977 2.31091 15.0226C2.93581 15.6475 3.78304 15.999 4.66677 16.0001H11.3334C12.2172 15.999 13.0644 15.6475 13.6893 15.0226C14.3142 14.3977 14.6657 13.5505 14.6668 12.6667V4.78472C14.6667 4.42811 14.5713 4.078 14.3905 3.77066C14.2096 3.46331 13.9498 3.20992 13.6381 3.03672ZM13.3334 12.6667C13.3334 13.1972 13.1227 13.7059 12.7476 14.0809C12.3726 14.456 11.8639 14.6667 11.3334 14.6667H4.66677C4.13634 14.6667 3.62763 14.456 3.25255 14.0809C2.87748 13.7059 2.66677 13.1972 2.66677 12.6667V4.78472C2.66647 4.66547 2.69817 4.54832 2.75856 4.44548C2.81895 4.34265 2.90581 4.2579 3.0101 4.20006L8.0001 1.42939L12.9908 4.20006C13.0949 4.25798 13.1817 4.34277 13.2419 4.4456C13.3022 4.54843 13.3338 4.66554 13.3334 4.78472V12.6667Z" fill="#374957"/>
<path d="M8 5.66687C8.55228 5.66687 9 5.21915 9 4.66687C9 4.11459 8.55228 3.66687 8 3.66687C7.44772 3.66687 7 4.11459 7 4.66687C7 5.21915 7.44772 5.66687 8 5.66687Z" fill="#374957"/>
</g>
<defs>
<clipPath id="clip0_16_21055">
<rect width="16" height="16" fill="white"/>
</clipPath>
</defs>
</svg>
