<svg width="16" height="16" viewBox="0 0 16 16" fill="none" xmlns="http://www.w3.org/2000/svg">
<g clip-path="url(#clip0_16_21076)">
<path d="M13.2667 2.06074C13.1847 1.70851 13.0319 1.37663 12.8177 1.08529C12.6034 0.793944 12.3322 0.549224 12.0204 0.366012C11.7086 0.182799 11.3628 0.064921 11.004 0.0195468C10.6452 -0.0258274 10.2809 0.00225026 9.93333 0.102072L8.784 0.430739C8.49285 0.514419 8.22469 0.663551 8 0.866739C7.77531 0.663551 7.50715 0.514419 7.216 0.430739L6.06667 0.102072C5.71929 0.00277053 5.35536 -0.0249068 4.99696 0.0207201C4.63856 0.066347 4.29317 0.184327 3.98175 0.367498C3.67034 0.550669 3.39939 0.795211 3.18536 1.08628C2.97133 1.37735 2.81868 1.70888 2.73667 2.06074C1.96987 2.20025 1.27619 2.60404 0.776222 3.20194C0.276251 3.79983 0.00159732 4.55402 0 5.33341L0 10.0001C0.00105857 10.8838 0.352588 11.731 0.97748 12.3559C1.60237 12.9808 2.4496 13.3323 3.33333 13.3334H7.33333V14.6667H5.33333C5.15652 14.6667 4.98695 14.737 4.86193 14.862C4.7369 14.987 4.66667 15.1566 4.66667 15.3334C4.66667 15.5102 4.7369 15.6798 4.86193 15.8048C4.98695 15.9298 5.15652 16.0001 5.33333 16.0001H10.6667C10.8435 16.0001 11.013 15.9298 11.1381 15.8048C11.2631 15.6798 11.3333 15.5102 11.3333 15.3334C11.3333 15.1566 11.2631 14.987 11.1381 14.862C11.013 14.737 10.8435 14.6667 10.6667 14.6667H8.66667V13.3334H12.6667C13.5504 13.3323 14.3976 12.9808 15.0225 12.3559C15.6474 11.731 15.9989 10.8838 16 10.0001V5.33341C15.9985 4.5545 15.7244 3.80069 15.2251 3.20286C14.7258 2.60504 14.0329 2.20094 13.2667 2.06074ZM8.66667 2.35407C8.66673 2.20928 8.71393 2.06845 8.80113 1.95286C8.88833 1.83728 9.01079 1.75322 9.15 1.71341L10.3 1.38474C10.4985 1.32798 10.7074 1.31806 10.9103 1.35578C11.1133 1.3935 11.3047 1.47782 11.4695 1.60211C11.6343 1.72639 11.768 1.88724 11.86 2.07198C11.9521 2.25673 12 2.46033 12 2.66674V5.29207C11.9991 5.58137 11.9044 5.86258 11.7301 6.09348C11.5558 6.32439 11.3113 6.49256 11.0333 6.57274L8.66667 7.24874V2.35407ZM4.53333 1.60007C4.69782 1.47624 4.88883 1.39233 5.0913 1.35496C5.29377 1.31759 5.50215 1.32779 5.7 1.38474L6.85 1.71341C6.98921 1.75322 7.11167 1.83728 7.19887 1.95286C7.28607 2.06845 7.33327 2.20928 7.33333 2.35407V7.24874L4.96667 6.57274C4.6887 6.49256 4.44423 6.32439 4.26993 6.09348C4.09564 5.86258 4.00092 5.58137 4 5.29207V2.66674C3.99932 2.45963 4.04722 2.25524 4.13984 2.06999C4.23247 1.88475 4.36724 1.7238 4.53333 1.60007ZM14.6667 10.0001C14.6667 10.5305 14.456 11.0392 14.0809 11.4143C13.7058 11.7894 13.1971 12.0001 12.6667 12.0001H3.33333C2.8029 12.0001 2.29419 11.7894 1.91912 11.4143C1.54405 11.0392 1.33333 10.5305 1.33333 10.0001V5.33341C1.33504 4.92123 1.46406 4.51965 1.70273 4.18361C1.94139 3.84756 2.27806 3.59346 2.66667 3.45607V5.29207C2.6683 5.87097 2.85761 6.43372 3.2062 6.8959C3.55478 7.35807 4.04384 7.69475 4.6 7.85541L6.90067 8.51341C7.61968 8.71836 8.38165 8.71836 9.10067 8.51341L11.4013 7.85541C11.9572 7.69451 12.446 7.35773 12.7943 6.89557C13.1427 6.43342 13.3318 5.87079 13.3333 5.29207V3.45607C13.7219 3.59346 14.0586 3.84756 14.2973 4.18361C14.5359 4.51965 14.665 4.92123 14.6667 5.33341V10.0001Z" fill="#374957"/>
</g>
<defs>
<clipPath id="clip0_16_21076">
<rect width="16" height="16" fill="white"/>
</clipPath>
</defs>
</svg>
