<svg width="16" height="16" viewBox="0 0 16 16" fill="none" xmlns="http://www.w3.org/2000/svg">
<g clip-path="url(#clip0_18_21224)">
<path d="M5.33333 0H2.66667C1.95942 0 1.28115 0.280952 0.781049 0.781049C0.280952 1.28115 0 1.95942 0 2.66667L0 3.33333C0 4.04058 0.280952 4.71885 0.781049 5.21895C1.28115 5.71905 1.95942 6 2.66667 6H3.33333V7.33333H2C1.82319 7.33333 1.65362 7.40357 1.5286 7.5286C1.40357 7.65362 1.33333 7.82319 1.33333 8C1.33333 8.17681 1.40357 8.34638 1.5286 8.47141C1.65362 8.59643 1.82319 8.66667 2 8.66667H6C6.17681 8.66667 6.34638 8.59643 6.4714 8.47141C6.59643 8.34638 6.66667 8.17681 6.66667 8C6.66667 7.82319 6.59643 7.65362 6.4714 7.5286C6.34638 7.40357 6.17681 7.33333 6 7.33333H4.66667V6H5.33333C6.04058 6 6.71885 5.71905 7.21895 5.21895C7.71905 4.71885 8 4.04058 8 3.33333V2.66667C8 1.95942 7.71905 1.28115 7.21895 0.781049C6.71885 0.280952 6.04058 0 5.33333 0V0ZM6.66667 3.33333C6.66667 3.68696 6.52619 4.02609 6.27614 4.27614C6.02609 4.52619 5.68696 4.66667 5.33333 4.66667H2.66667C2.31304 4.66667 1.97391 4.52619 1.72386 4.27614C1.47381 4.02609 1.33333 3.68696 1.33333 3.33333V2.66667C1.33333 2.31304 1.47381 1.97391 1.72386 1.72386C1.97391 1.47381 2.31304 1.33333 2.66667 1.33333H5.33333C5.68696 1.33333 6.02609 1.47381 6.27614 1.72386C6.52619 1.97391 6.66667 2.31304 6.66667 2.66667V3.33333ZM13.3333 7.33333H12C11.2928 7.33333 10.6145 7.61428 10.1144 8.11438C9.61429 8.61448 9.33333 9.29276 9.33333 10V13.3333C9.33333 14.0406 9.61429 14.7189 10.1144 15.219C10.6145 15.719 11.2928 16 12 16H13.3333C14.0406 16 14.7189 15.719 15.219 15.219C15.719 14.7189 16 14.0406 16 13.3333V10C16 9.29276 15.719 8.61448 15.219 8.11438C14.7189 7.61428 14.0406 7.33333 13.3333 7.33333ZM14.6667 13.3333C14.6667 13.687 14.5262 14.0261 14.2761 14.2761C14.0261 14.5262 13.687 14.6667 13.3333 14.6667H12C11.6464 14.6667 11.3072 14.5262 11.0572 14.2761C10.8071 14.0261 10.6667 13.687 10.6667 13.3333V10C10.6667 9.64638 10.8071 9.30724 11.0572 9.05719C11.3072 8.80714 11.6464 8.66667 12 8.66667H13.3333C13.687 8.66667 14.0261 8.80714 14.2761 9.05719C14.5262 9.30724 14.6667 9.64638 14.6667 10V13.3333ZM9.33333 2.66667C9.33333 2.48986 9.40357 2.32029 9.5286 2.19526C9.65362 2.07024 9.82319 2 10 2H11.3333C11.8638 2 12.3725 2.21071 12.7475 2.58579C13.1226 2.96086 13.3333 3.46957 13.3333 4V5.33333C13.3333 5.51014 13.2631 5.67971 13.1381 5.80474C13.013 5.92976 12.8435 6 12.6667 6C12.4899 6 12.3203 5.92976 12.1953 5.80474C12.0702 5.67971 12 5.51014 12 5.33333V4C12 3.82319 11.9298 3.65362 11.8047 3.5286C11.6797 3.40357 11.5101 3.33333 11.3333 3.33333H10C9.82319 3.33333 9.65362 3.2631 9.5286 3.13807C9.40357 3.01305 9.33333 2.84348 9.33333 2.66667ZM8 13.3333C8 13.5101 7.92976 13.6797 7.80474 13.8047C7.67971 13.9298 7.51014 14 7.33333 14H5.33333C4.8029 14 4.29419 13.7893 3.91912 13.4142C3.54405 13.0391 3.33333 12.5304 3.33333 12V10.6667C3.33333 10.4899 3.40357 10.3203 3.5286 10.1953C3.65362 10.0702 3.82319 10 4 10C4.17681 10 4.34638 10.0702 4.4714 10.1953C4.59643 10.3203 4.66667 10.4899 4.66667 10.6667V12C4.66667 12.1768 4.7369 12.3464 4.86193 12.4714C4.98695 12.5964 5.15652 12.6667 5.33333 12.6667H7.33333C7.51014 12.6667 7.67971 12.7369 7.80474 12.8619C7.92976 12.987 8 13.1565 8 13.3333ZM13.3333 13.3333C13.3333 13.4652 13.2942 13.5941 13.221 13.7037C13.1477 13.8133 13.0436 13.8988 12.9218 13.9493C12.8 13.9997 12.6659 14.0129 12.5366 13.9872C12.4073 13.9615 12.2885 13.898 12.1953 13.8047C12.102 13.7115 12.0385 13.5927 12.0128 13.4634C11.9871 13.3341 12.0003 13.2 12.0507 13.0782C12.1012 12.9564 12.1867 12.8523 12.2963 12.779C12.4059 12.7058 12.5348 12.6667 12.6667 12.6667C12.8435 12.6667 13.013 12.7369 13.1381 12.8619C13.2631 12.987 13.3333 13.1565 13.3333 13.3333Z" fill="#374957"/>
</g>
<defs>
<clipPath id="clip0_18_21224">
<rect width="16" height="16" fill="white"/>
</clipPath>
</defs>
</svg>
