<svg width="16" height="17" viewBox="0 0 16 17" fill="none" xmlns="http://www.w3.org/2000/svg">
<g clip-path="url(#clip0_5007_19457)">
<path d="M15.2933 0.978193C14.8401 0.525658 14.2258 0.271484 13.5853 0.271484C12.9449 0.271484 12.3306 0.525658 11.8773 0.978193L0 12.8555V16.2715H3.416L15.2933 4.39419C15.7457 3.94088 15.9998 3.32661 15.9998 2.68619C15.9998 2.04577 15.7457 1.43151 15.2933 0.978193ZM2.86667 14.9382H1.33333V13.4049L10.2067 4.53819L11.74 6.07153L2.86667 14.9382ZM14.3507 3.45153L12.6793 5.12286L11.1493 3.58953L12.82 1.92086C13.0233 1.71753 13.2991 1.6033 13.5867 1.6033C13.8742 1.6033 14.15 1.71753 14.3533 1.92086C14.5567 2.12419 14.6709 2.39997 14.6709 2.68753C14.6709 2.97508 14.5567 3.25086 14.3533 3.45419L14.3507 3.45153Z" fill="#FFAB00"/>
</g>
<defs>
<clipPath id="clip0_5007_19457">
<rect width="16" height="16" fill="white" transform="translate(0 0.272461)"/>
</clipPath>
</defs>
</svg>
