<svg width="195" height="42" viewBox="0 0 195 42" fill="none" xmlns="http://www.w3.org/2000/svg">
<path fill-rule="evenodd" clip-rule="evenodd" d="M8.3814 9.91406H9.98225C10.3939 9.91406 10.7141 10.2571 10.7141 10.6459V13.9619H22.3774V10.6459C22.3774 10.2571 22.6975 9.91406 23.0863 9.91406H24.6871C25.0988 9.91406 25.419 10.2571 25.419 10.6459V19.5649H30.4044C30.7932 19.5649 31.1134 19.885 31.1134 20.2967V21.8975C31.1134 21.9204 31.1134 21.9433 31.1134 21.9661V25.8082C31.1134 25.831 31.1134 25.8539 31.1134 25.8996V27.5005C31.1134 27.8893 30.7932 28.2094 30.4044 28.2094H24.6871H23.0863H12.2463C11.8347 28.2094 11.5145 27.8893 11.5145 27.5005V25.8996C11.5145 25.488 11.8347 25.1678 12.2463 25.1678H22.3774V24.1387C22.3774 23.7499 22.6975 23.4298 23.0863 23.4298H24.6871C25.0988 23.4298 25.419 23.7499 25.419 24.1387V25.1678H28.0718V22.6065H24.6871H23.0863H14.0987C13.7099 22.6065 13.3898 22.2863 13.3898 21.8975V20.2967C13.3898 19.885 13.7099 19.5649 14.0987 19.5649H22.3774V17.0264H7.37516C6.25457 17.0264 5.24832 17.4609 4.51651 18.2156C3.78469 18.9474 3.32731 19.9765 3.32731 21.0971C3.32731 22.2177 3.78469 23.2468 4.51651 23.9786C5.24832 24.7104 6.25457 25.1678 7.37516 25.1678H7.67246V18.5358C7.67246 18.147 7.99263 17.8268 8.3814 17.8268H9.98225C10.3939 17.8268 10.7141 18.147 10.7141 18.5358V31.6398C10.7141 32.0286 10.3939 32.3716 9.98225 32.3716H8.3814C7.99263 32.3716 7.67246 32.0286 7.67246 31.6398V28.2094H7.37516C5.43128 28.2094 3.64748 27.409 2.3668 26.1283C1.08613 24.8248 0.285706 23.041 0.285706 21.0971C0.285706 19.1304 1.08613 17.3466 2.3668 16.0659C3.64748 14.7623 5.43128 13.9619 7.37516 13.9619H7.67246V10.6459C7.67246 10.2571 7.99263 9.91406 8.3814 9.91406ZM31.1134 14.6937V16.2946C31.1134 16.6833 30.7932 17.0264 30.4044 17.0264H26.9512C26.5396 17.0264 26.2194 16.6833 26.2194 16.2946V14.6937C26.2194 14.2821 26.5396 13.9619 26.9512 13.9619H30.4044C30.7932 13.9619 31.1134 14.2821 31.1134 14.6937ZM23.0863 29.0327H24.6871C25.0988 29.0327 25.419 29.3529 25.419 29.7417V31.5941C25.419 31.9828 25.0988 32.303 24.6871 32.303H23.0863C22.6975 32.303 22.3774 31.9828 22.3774 31.5941V29.7417C22.3774 29.3529 22.6975 29.0327 23.0863 29.0327Z" fill="url(#paint0_linear_7_21034)"/>
<path d="M143.881 28.3695C142.555 28.3695 141.572 28.0494 140.954 27.4319C140.314 26.8144 140.017 25.8311 140.017 24.5046V18.0327C140.017 16.6148 140.337 15.5857 140.977 14.9225C141.617 14.2821 142.669 13.9619 144.087 13.9619H152.297V16.8206H144.888C144.087 16.8206 143.676 17.2322 143.676 18.0327V24.5046C143.676 24.8248 143.767 25.0764 143.95 25.2593C144.133 25.4423 144.385 25.5338 144.705 25.5338C145.094 25.5338 145.551 25.5338 146.054 25.5338C146.534 25.5338 147.015 25.5338 147.449 25.5338C147.952 25.5338 148.455 25.5338 148.958 25.5338V22.515H146.329V20.068H152.64V27.9122C149.805 28.3238 146.74 28.3695 143.881 28.3695ZM165.95 28.2095H154.676V13.9619H165.95V16.8206H158.335V19.5649H164.327V22.4235H158.335V25.3737H165.95V28.2095ZM170.135 28.2095H166.156L171.553 13.9619H175.624L181.021 28.2095H177.042L176.127 25.671H171.05L170.135 28.2095ZM171.965 23.0181H175.212L173.589 18.2385L171.965 23.0181ZM182.027 13.9619H190.58C192.021 13.9619 193.05 14.2821 193.691 14.9453C194.331 15.5857 194.651 16.6148 194.651 18.0327V19.8622C194.651 21.0057 194.468 21.8747 194.102 22.4922C193.713 23.1325 193.119 23.5441 192.318 23.75L194.857 28.2095H190.901L188.545 23.9329H185.709V28.2095H182.027V13.9619ZM190.992 18.0327C190.992 17.2322 190.58 16.8206 189.78 16.8206H185.709V21.0971H189.78C190.58 21.0971 190.992 20.6855 190.992 19.8622V18.0327Z" fill="#191736"/>
<path d="M54.3483 28.2095H50.6893V22.4235H45.5894V28.2095H41.9304V13.9619H45.5894V19.5649H50.6893V13.9619H54.3483V28.2095ZM63.496 28.2095H56.1779V25.3737H58.0074V16.8206H56.1779V13.9619H63.496V16.8206H61.6665V25.3737H63.496V28.2095ZM68.8017 28.3695C67.4753 28.3695 66.4919 28.0494 65.8744 27.4319C65.2341 26.8144 64.9368 25.8311 64.9368 24.5046V18.0327C64.9368 16.6148 65.2569 15.5857 65.8973 14.9225C66.5376 14.2821 67.5667 13.9619 69.0075 13.9619H77.0803V16.8206H69.8079C69.0075 16.8206 68.5959 17.2322 68.5959 18.0327V24.5046C68.5959 24.8248 68.6873 25.0764 68.8703 25.2593C69.0532 25.4423 69.3048 25.5338 69.6021 25.5338C70.0137 25.5338 70.4711 25.5338 70.9742 25.5338C71.4545 25.5338 71.9348 25.5338 72.3693 25.5338C72.8724 25.5338 73.3755 25.5338 73.8786 25.5338V22.515H71.2487V20.068H77.5606V27.9122C74.7248 28.3238 71.6603 28.3695 68.8017 28.3695ZM91.9911 28.2095H88.332V22.4235H83.255V28.2095H79.5959V13.9619H83.255V19.5649H88.332V13.9619H91.9911V28.2095ZM105.735 28.2095H94.4381V13.9619H105.735V16.8206H98.0971V19.5649H104.112V22.4235H98.0971V25.3737H105.735V28.2095ZM110.424 18.4443C110.424 19.2676 110.812 19.6792 111.636 19.6792H115.295C116.621 19.6792 117.605 19.9765 118.222 20.594C118.862 21.2115 119.16 22.172 119.16 23.4755V24.4818C119.16 25.7853 118.862 26.7458 118.222 27.3633C117.605 27.9579 116.621 28.2781 115.295 28.2781C114.883 28.2781 114.471 28.2781 114.014 28.2781C113.557 28.2781 113.099 28.2781 112.619 28.2781C112.162 28.2781 111.681 28.2781 111.224 28.2781C110.744 28.2781 110.309 28.2781 109.898 28.2781C108.891 28.2781 107.908 28.1866 106.948 28.0036V25.3965C107.931 25.3965 108.891 25.3965 109.829 25.3965C110.629 25.3965 111.453 25.3965 112.299 25.3965C113.168 25.3965 113.9 25.3965 114.494 25.3965C114.792 25.3965 115.043 25.3279 115.226 25.145C115.409 24.9849 115.501 24.7333 115.501 24.436V22.7208H110.812C109.395 22.7208 108.365 22.4007 107.725 21.7603C107.085 21.12 106.765 20.068 106.765 18.6501V18.0327C106.765 16.6148 107.085 15.5857 107.725 14.9453C108.365 14.2821 109.395 13.9619 110.812 13.9619H117.97V16.8206H111.636C110.812 16.8206 110.424 17.2322 110.424 18.0327V18.4443ZM126.912 28.2095H123.23V16.8206H118.954V13.9619H131.166V16.8206H126.912V28.2095Z" fill="#191736"/>
<defs>
<linearGradient id="paint0_linear_7_21034" x1="17.0923" y1="13.9962" x2="15.8871" y2="36.248" gradientUnits="userSpaceOnUse">
<stop stop-color="#F6AB00"/>
<stop offset="1" stop-color="#F67300"/>
</linearGradient>
</defs>
</svg>
