<svg width="96" height="77" viewBox="0 0 96 77" fill="none" xmlns="http://www.w3.org/2000/svg">
<path fill-rule="evenodd" clip-rule="evenodd" d="M26.3019 0.900024H30.3111C31.3421 0.900024 32.1439 1.75919 32.1439 2.7329V11.0381H61.3539V2.7329C61.3539 1.75919 62.1558 0.900024 63.1295 0.900024H67.1387C68.1696 0.900024 68.9715 1.75919 68.9715 2.7329V25.0711H81.4573C82.431 25.0711 83.2328 25.873 83.2328 26.904V30.9134C83.2328 30.9707 83.2328 31.028 83.2328 31.0853V40.7079C83.2328 40.7652 83.2328 40.8225 83.2328 40.937V44.9464C83.2328 45.9202 82.431 46.722 81.4573 46.722H67.1387H63.1295H35.9813C34.9504 46.722 34.1485 45.9202 34.1485 44.9464V40.937C34.1485 39.906 34.9504 39.1041 35.9813 39.1041H61.3539V36.5266C61.3539 35.5529 62.1558 34.751 63.1295 34.751H67.1387C68.1696 34.751 68.9715 35.5529 68.9715 36.5266V39.1041H75.6153V32.689H67.1387H63.1295H40.6205C39.6469 32.689 38.845 31.8872 38.845 30.9134V26.904C38.845 25.873 39.6469 25.0711 40.6205 25.0711H61.3539V18.7133H23.7818C20.9754 18.7133 18.4553 19.8016 16.6225 21.6918C14.7897 23.5246 13.6442 26.1021 13.6442 28.9087C13.6442 31.7153 14.7897 34.2928 16.6225 36.1257C18.4553 37.9586 20.9754 39.1041 23.7818 39.1041H24.5264V22.4936C24.5264 21.5199 25.3282 20.718 26.3019 20.718H30.3111C31.3421 20.718 32.1439 21.5199 32.1439 22.4936V55.3137C32.1439 56.2874 31.3421 57.1465 30.3111 57.1465H26.3019C25.3282 57.1465 24.5264 56.2874 24.5264 55.3137V46.722H23.7818C18.9135 46.722 14.4461 44.7173 11.2387 41.5098C8.03131 38.245 6.0267 33.7773 6.0267 28.9087C6.0267 23.9829 8.03131 19.5152 11.2387 16.3077C14.4461 13.0429 18.9135 11.0381 23.7818 11.0381H24.5264V2.7329C24.5264 1.75919 25.3282 0.900024 26.3019 0.900024ZM83.2328 12.871V16.8805C83.2328 17.8542 82.431 18.7133 81.4573 18.7133H72.8089C71.7779 18.7133 70.9761 17.8542 70.9761 16.8805V12.871C70.9761 11.84 71.7779 11.0381 72.8089 11.0381H81.4573C82.431 11.0381 83.2328 11.84 83.2328 12.871ZM63.1295 48.784H67.1387C68.1696 48.784 68.9715 49.5859 68.9715 50.5596V55.1991C68.9715 56.1728 68.1696 56.9747 67.1387 56.9747H63.1295C62.1558 56.9747 61.3539 56.1728 61.3539 55.1991V50.5596C61.3539 49.5859 62.1558 48.784 63.1295 48.784Z" fill="#FFAB00"/>
<path d="M64 76.9C63.1674 76.9 62.5501 76.6991 62.1625 76.3119C61.7605 75.9246 61.5739 75.3078 61.5739 74.4759V70.4167C61.5739 69.5274 61.7748 68.8819 62.1768 68.466C62.5788 68.0643 63.2392 67.8635 64.1293 67.8635H69.2831V69.6565H64.6317C64.1293 69.6565 63.8708 69.9147 63.8708 70.4167V74.4759C63.8708 74.6767 63.9283 74.8345 64.0431 74.9492C64.158 75.064 64.3159 75.1214 64.5169 75.1214C64.7609 75.1214 65.0481 75.1214 65.3639 75.1214C65.6654 75.1214 65.9668 75.1214 66.2396 75.1214C66.5555 75.1214 66.8713 75.1214 67.1871 75.1214V73.228H65.5362V71.6933H69.4985V76.6131C67.7183 76.8713 65.7946 76.9 64 76.9ZM77.8538 76.7996H70.7762V67.8635H77.8538V69.6565H73.0732V71.3777H76.8345V73.1706H73.0732V75.021H77.8538V76.7996ZM80.481 76.7996H77.983L81.371 67.8635H83.9264L87.3145 76.7996H84.8165L84.2423 75.2074H81.0552L80.481 76.7996ZM81.6294 73.5436H83.668L82.6487 70.5458L81.6294 73.5436ZM87.9462 67.8635H93.3154C94.2198 67.8635 94.8659 68.0643 95.2678 68.4803C95.6698 68.8819 95.8708 69.5274 95.8708 70.4167V71.5642C95.8708 72.2813 95.7559 72.8264 95.5262 73.2137C95.2822 73.6153 94.9089 73.8735 94.4065 74.0026L96 76.7996H93.5164L92.0377 74.1173H90.2575V76.7996H87.9462V67.8635ZM93.5738 70.4167C93.5738 69.9147 93.3154 69.6565 92.8129 69.6565H90.2575V72.3387H92.8129C93.3154 72.3387 93.5738 72.0805 93.5738 71.5642V70.4167Z" fill="#191736"/>
<path d="M7.79541 76.7996H5.49842V73.1706H2.29699V76.7996H0V67.8635H2.29699V71.3777H5.49842V67.8635H7.79541V76.7996ZM13.5379 76.7996H8.9439V75.021H10.0924V69.6565H8.9439V67.8635H13.5379V69.6565H12.3894V75.021H13.5379V76.7996ZM16.8685 76.9C16.0359 76.9 15.4185 76.6991 15.0309 76.3119C14.629 75.9246 14.4423 75.3078 14.4423 74.4759V70.4167C14.4423 69.5274 14.6433 68.8819 15.0453 68.466C15.4473 68.0643 16.0933 67.8635 16.9977 67.8635H22.0655V69.6565H17.5002C16.9977 69.6565 16.7393 69.9147 16.7393 70.4167V74.4759C16.7393 74.6767 16.7967 74.8345 16.9116 74.9492C17.0264 75.064 17.1844 75.1214 17.371 75.1214C17.6294 75.1214 17.9165 75.1214 18.2324 75.1214C18.5338 75.1214 18.8353 75.1214 19.1081 75.1214C19.4239 75.1214 19.7398 75.1214 20.0556 75.1214V73.228H18.4046V71.6933H22.3669V76.6131C20.5868 76.8713 18.663 76.9 16.8685 76.9ZM31.4257 76.7996H29.1287V73.1706H25.9416V76.7996H23.6446V67.8635H25.9416V71.3777H29.1287V67.8635H31.4257V76.7996ZM40.0538 76.7996H32.9618V67.8635H40.0538V69.6565H35.2588V71.3777H39.0345V73.1706H35.2588V75.021H40.0538V76.7996ZM42.9968 70.6749C42.9968 71.1912 43.2408 71.4494 43.7577 71.4494H46.0546C46.8873 71.4494 47.5046 71.6359 47.8922 72.0232C48.2942 72.4104 48.4808 73.0129 48.4808 73.8304V74.4616C48.4808 75.2791 48.2942 75.8816 47.8922 76.2688C47.5046 76.6418 46.8873 76.8426 46.0546 76.8426C45.7962 76.8426 45.5378 76.8426 45.2507 76.8426C44.9636 76.8426 44.6765 76.8426 44.375 76.8426C44.0879 76.8426 43.7864 76.8426 43.4992 76.8426C43.1978 76.8426 42.925 76.8426 42.6666 76.8426C42.0349 76.8426 41.4176 76.7852 40.8146 76.6705V75.0353C41.432 75.0353 42.0349 75.0353 42.6235 75.0353C43.126 75.0353 43.6428 75.0353 44.174 75.0353C44.7195 75.0353 45.1789 75.0353 45.5522 75.0353C45.7388 75.0353 45.8967 74.9923 46.0116 74.8775C46.1264 74.7771 46.1839 74.6193 46.1839 74.4329V73.3571H43.2408C42.3508 73.3571 41.7047 73.1563 41.3028 72.7547C40.9008 72.3531 40.6998 71.6933 40.6998 70.804V70.4167C40.6998 69.5274 40.9008 68.8819 41.3028 68.4803C41.7047 68.0643 42.3508 67.8635 43.2408 67.8635H47.7343V69.6565H43.7577C43.2408 69.6565 42.9968 69.9147 42.9968 70.4167V70.6749ZM53.3476 76.7996H51.0362V69.6565H48.3516V67.8635H56.0178V69.6565H53.3476V76.7996Z" fill="#191736"/>
</svg>
