<svg width="12" height="12" viewBox="0 0 12 12" fill="none" xmlns="http://www.w3.org/2000/svg">
<g clip-path="url(#clip0_4493_11646)">
<path d="M6.00003 6C6.39559 6 6.78227 5.8827 7.11117 5.66294C7.44007 5.44318 7.69641 5.13082 7.84779 4.76537C7.99916 4.39991 8.03877 3.99778 7.9616 3.60982C7.88443 3.22186 7.69395 2.86549 7.41424 2.58579C7.13454 2.30608 6.77817 2.1156 6.39021 2.03843C6.00225 1.96126 5.60011 2.00087 5.23466 2.15224C4.86921 2.30362 4.55685 2.55996 4.33709 2.88886C4.11733 3.21776 4.00003 3.60444 4.00003 4C4.00003 4.53043 4.21074 5.03914 4.58581 5.41421C4.96089 5.78929 5.4696 6 6.00003 6ZM6.00003 3C6.19781 3 6.39115 3.05865 6.5556 3.16853C6.72005 3.27841 6.84822 3.43459 6.92391 3.61732C6.9996 3.80004 7.0194 4.00111 6.98081 4.19509C6.94223 4.38907 6.84699 4.56725 6.70714 4.70711C6.56728 4.84696 6.3891 4.9422 6.19512 4.98079C6.00114 5.01937 5.80007 4.99957 5.61734 4.92388C5.43462 4.84819 5.27844 4.72002 5.16856 4.55557C5.05868 4.39112 5.00003 4.19778 5.00003 4C5.00003 3.73478 5.10539 3.48043 5.29292 3.29289C5.48046 3.10536 5.73481 3 6.00003 3ZM10.33 4.5785L9.97053 4.459C10.0352 3.89896 9.9808 3.33157 9.81083 2.79404C9.64086 2.25651 9.35919 1.76098 8.98428 1.33995C8.60937 0.91891 8.14969 0.58188 7.63539 0.350957C7.12109 0.120034 6.56379 0.000433741 6.00003 0C5.42891 0.000220485 4.86447 0.122847 4.34474 0.359618C3.82501 0.596388 3.36206 0.941802 2.98709 1.37259C2.61212 1.80337 2.33383 2.30952 2.17098 2.85693C2.00813 3.40435 1.9645 3.9803 2.04303 4.546C1.56454 4.63522 1.12209 4.86096 0.769028 5.196C0.524615 5.42837 0.330313 5.70828 0.198067 6.01852C0.0658215 6.32875 -0.00157269 6.66276 2.78535e-05 7V9.0375C0.00107865 9.57817 0.176924 10.104 0.501323 10.5365C0.825723 10.9691 1.28128 11.2851 1.80003 11.4375L3.23503 11.8875C3.47606 11.9625 3.72709 12.0004 3.97953 12C4.20852 11.9997 4.43642 11.9684 4.65703 11.907L7.54703 11.052C7.80449 10.9817 8.07607 10.9817 8.33353 11.052L9.52703 11.452C9.82118 11.5236 10.1277 11.5275 10.4236 11.4634C10.7195 11.3993 10.9969 11.2688 11.2351 11.0819C11.4732 10.8949 11.6658 10.6564 11.7983 10.3842C11.9308 10.112 11.9998 9.81324 12 9.5105V6.936C11.9989 6.4187 11.8378 5.91442 11.5388 5.49227C11.2398 5.07012 10.8176 4.75077 10.33 4.578V4.5785ZM3.87903 1.881C4.15716 1.60174 4.48769 1.38016 4.85167 1.22897C5.21565 1.07777 5.6059 0.99994 6.00003 0.99994C6.39416 0.99994 6.78441 1.07777 7.14839 1.22897C7.51236 1.38016 7.8429 1.60174 8.12103 1.881C8.68211 2.44557 8.99749 3.20891 8.99852 4.00487C8.99955 4.80083 8.68615 5.56498 8.12653 6.131L6.35003 7.8585C6.25731 7.94941 6.13263 8.00033 6.00278 8.00033C5.87292 8.00033 5.74825 7.94941 5.65553 7.8585L3.87903 6.1385C3.31676 5.57269 3.00118 4.80742 3.00118 4.00975C3.00118 3.21208 3.31676 2.44681 3.87903 1.881ZM11 9.5105C11.0003 9.66194 10.9661 9.81145 10.8999 9.94766C10.8337 10.0839 10.7373 10.2032 10.618 10.2965C10.5053 10.3871 10.3741 10.4518 10.2336 10.4859C10.093 10.52 9.94673 10.5228 9.80503 10.494L8.63253 10.1C8.18903 9.97259 7.719 9.96982 7.27403 10.092L4.38203 10.946C4.10417 11.0226 3.8101 11.0176 3.53503 10.9315L2.08803 10.4815C1.77485 10.3909 1.49951 10.2012 1.30333 9.94086C1.10715 9.68049 1.00072 9.36351 1.00003 9.0375V7C0.998904 6.79789 1.03913 6.59769 1.11824 6.4117C1.19735 6.22572 1.31366 6.05787 1.46003 5.9185C1.68916 5.70013 1.98104 5.55918 2.29453 5.5155C2.49608 6.01509 2.79622 6.46895 3.17703 6.85L4.96053 8.5765C5.23928 8.84945 5.61389 9.00232 6.00403 9.00232C6.39417 9.00232 6.76877 8.84945 7.04753 8.5765L8.82903 6.845C9.2279 6.44452 9.53692 5.96369 9.73553 5.4345L10.004 5.5235C10.2952 5.62784 10.5471 5.81948 10.7254 6.07227C10.9036 6.32506 10.9995 6.62669 11 6.936V9.5105Z" fill="#FFAB00"/>
</g>
<defs>
<clipPath id="clip0_4493_11646">
<rect width="12" height="12" fill="white"/>
</clipPath>
</defs>
</svg>
