<svg width="16" height="16" viewBox="0 0 16 16" fill="none" xmlns="http://www.w3.org/2000/svg">
<g clip-path="url(#clip0_1112_50873)">
<path d="M0.666667 3.99996H15.3333C15.5101 3.99996 15.6797 3.92972 15.8047 3.80469C15.9298 3.67967 16 3.5101 16 3.33329C16 3.15648 15.9298 2.98691 15.8047 2.86189C15.6797 2.73686 15.5101 2.66663 15.3333 2.66663H0.666667C0.489856 2.66663 0.320286 2.73686 0.195262 2.86189C0.0702379 2.98691 0 3.15648 0 3.33329C0 3.5101 0.0702379 3.67967 0.195262 3.80469C0.320286 3.92972 0.489856 3.99996 0.666667 3.99996Z" fill="#374957"/>
<path d="M0.666667 7.33333H10C10.1768 7.33333 10.3464 7.26309 10.4714 7.13807C10.5964 7.01304 10.6667 6.84348 10.6667 6.66667C10.6667 6.48985 10.5964 6.32029 10.4714 6.19526C10.3464 6.07024 10.1768 6 10 6H0.666667C0.489856 6 0.320286 6.07024 0.195262 6.19526C0.0702379 6.32029 0 6.48985 0 6.66667C0 6.84348 0.0702379 7.01304 0.195262 7.13807C0.320286 7.26309 0.489856 7.33333 0.666667 7.33333Z" fill="#374957"/>
<path d="M10 12.6666H0.666667C0.489856 12.6666 0.320286 12.7369 0.195262 12.8619C0.0702379 12.9869 0 13.1565 0 13.3333C0 13.5101 0.0702379 13.6797 0.195262 13.8047C0.320286 13.9297 0.489856 14 0.666667 14H10C10.1768 14 10.3464 13.9297 10.4714 13.8047C10.5964 13.6797 10.6667 13.5101 10.6667 13.3333C10.6667 13.1565 10.5964 12.9869 10.4714 12.8619C10.3464 12.7369 10.1768 12.6666 10 12.6666Z" fill="#374957"/>
<path d="M15.3333 9.33337H0.666667C0.489856 9.33337 0.320286 9.40361 0.195262 9.52864C0.0702379 9.65366 0 9.82323 0 10C0 10.1769 0.0702379 10.3464 0.195262 10.4715C0.320286 10.5965 0.489856 10.6667 0.666667 10.6667H15.3333C15.5101 10.6667 15.6797 10.5965 15.8047 10.4715C15.9298 10.3464 16 10.1769 16 10C16 9.82323 15.9298 9.65366 15.8047 9.52864C15.6797 9.40361 15.5101 9.33337 15.3333 9.33337Z" fill="#374957"/>
</g>
<defs>
<clipPath id="clip0_1112_50873">
<rect width="16" height="16" fill="white"/>
</clipPath>
</defs>
</svg>
