<svg width="1066" height="334" viewBox="0 0 1066 334" fill="none" xmlns="http://www.w3.org/2000/svg">
<g clip-path="url(#clip0_823_2732)">
<path opacity="0.4" d="M144.993 304.332C144.993 314.012 143.807 323.428 141.576 332.427L110.454 301.21C108.862 258.412 74.4446 223.891 31.7751 222.295L0.652344 191.078C9.6242 188.841 19.0117 187.651 28.6628 187.651C92.8039 187.651 144.993 239.997 144.993 304.332Z" fill="#FFAB00"/>
<path opacity="0.4" d="M302.006 191.078L270.884 222.295C228.214 223.891 193.797 258.412 192.205 301.21L161.082 332.427C158.852 323.428 157.666 314.012 157.666 304.332C157.666 239.997 209.855 187.651 273.996 187.651C283.647 187.651 293.035 188.841 302.006 191.078Z" fill="#FFAB00"/>
<path d="M302.005 168.464C293.033 170.701 283.646 171.891 273.995 171.891C210.28 171.891 158.354 120.236 157.685 56.4817H144.972C144.303 120.236 92.3782 171.891 28.6628 171.891C19.0117 171.891 9.6242 170.701 0.652344 168.464L31.7751 137.248C74.4446 135.651 108.862 101.13 110.454 58.3323C110.494 57.7222 110.504 57.1019 110.504 56.4817H84.9777L108.497 37.0197L137.207 13.2565L151.329 1.57324L165.451 13.2565L194.161 37.0197L217.68 56.4817H192.153C192.153 57.1019 192.163 57.7222 192.204 58.3323C193.796 101.13 228.213 135.651 270.883 137.248L302.005 168.464Z" fill="#F6AB00"/>
</g>
<path d="M1014.91 125C1045.63 125 1065.31 141.2 1065.31 167C1065.31 192.8 1045.63 209 1014.91 209H974.111V125H1014.91ZM1014.19 199.64C1038.07 199.64 1054.99 188.48 1054.99 167C1054.99 145.52 1038.07 134.36 1014.19 134.36H984.191V199.64H1014.19Z" fill="#F6AB00"/>
<path d="M893.137 199.64H957.457V209H883.057V125H893.137V199.64Z" fill="#F6AB00"/>
<path d="M791.184 199.64H862.344V209H781.104V125H861.143V134.36H791.184V161.6H850.464V170.96H791.184V199.64Z" fill="#F6AB00"/>
<path d="M663.519 180.8C665.439 190.88 673.479 194.96 686.919 194.96C697.479 194.96 703.839 192.44 710.439 187.4L722.439 200C712.959 208.4 700.719 211.76 685.599 211.76C657.399 211.76 640.959 198.08 640.959 175.76C640.959 153.44 657.159 139.76 683.799 139.76C707.799 139.76 724.839 151.76 724.839 175.28C724.839 177.92 724.719 179.48 724.239 180.8H663.519ZM684.039 156.32C673.839 156.32 666.759 160.04 664.119 168.08L702.999 167.84C700.479 160.04 694.119 156.32 684.039 156.32Z" fill="#F6AB00"/>
<path d="M608.324 209H584.684V142.52H608.324V154.88C613.844 145.52 624.284 140.96 636.164 140.96V160.64C622.004 160.64 611.804 166.04 608.324 176.96V209Z" fill="#F6AB00"/>
<path d="M528.425 211.76C501.665 211.76 484.865 197.96 484.865 175.76C484.865 153.44 501.665 139.88 528.425 139.88C555.065 139.88 571.865 153.44 571.865 175.76C571.865 197.96 555.065 211.76 528.425 211.76ZM528.425 193.52C540.545 193.52 549.305 187.4 549.305 175.76C549.305 164 540.545 158 528.425 158C516.305 158 507.545 164 507.545 175.76C507.545 187.4 516.305 193.52 528.425 193.52Z" fill="#F6AB00"/>
<path d="M431.292 191.84C442.572 191.84 451.212 188 457.092 179L478.092 189.8C470.292 202.16 453.372 211.76 430.692 211.76C399.012 211.76 377.652 195.32 377.652 167C377.652 138.68 399.012 122.24 431.652 122.24C453.372 122.24 470.172 132.08 477.732 144.08L456.612 154.88C451.092 146.24 442.572 142.16 431.292 142.16C414.012 142.16 402.492 150.92 402.492 167C402.492 183.08 414.012 191.84 431.292 191.84Z" fill="#F6AB00"/>
<defs>
<clipPath id="clip0_823_2732">
<rect width="332" height="333" fill="white" transform="translate(0.652344 0.5)"/>
</clipPath>
</defs>
</svg>
