<svg width="1117" height="334" viewBox="0 0 1117 334" fill="none" xmlns="http://www.w3.org/2000/svg">
<g clip-path="url(#clip0_807_2718)">
<path opacity="0.4" d="M144.34 304.332C144.34 314.012 143.154 323.428 140.924 332.427L109.801 301.211C108.21 258.413 73.7923 223.891 31.1227 222.295L0 191.079C8.97186 188.842 18.3594 187.652 28.0104 187.652C92.1516 187.652 144.34 239.998 144.34 304.332Z" fill="white"/>
<path opacity="0.4" d="M301.352 191.079L270.229 222.295C227.56 223.891 193.142 258.413 191.551 301.211L160.428 332.427C158.198 323.428 157.012 314.012 157.012 304.332C157.012 239.998 209.201 187.652 273.342 187.652C282.993 187.652 292.38 188.842 301.352 191.079Z" fill="white"/>
<path d="M301.353 168.464C292.381 170.701 282.994 171.891 273.343 171.891C209.627 171.891 157.702 120.236 157.033 56.4817H144.32C143.651 120.236 91.7258 171.891 28.0104 171.891C18.3594 171.891 8.97186 170.701 0 168.464L31.1227 137.248C73.7923 135.651 108.21 101.13 109.801 58.3323C109.842 57.7222 109.852 57.1019 109.852 56.4817H84.3253L107.845 37.0197L136.555 13.2565L150.676 1.57324L164.798 13.2565L193.508 37.0197L217.028 56.4817H191.501C191.501 57.1019 191.511 57.7222 191.552 58.3323C193.143 101.13 227.561 135.651 270.23 137.248L301.353 168.464Z" fill="white"/>
</g>
<path d="M1082.2 171.8C1101.88 173.36 1116.28 178.28 1116.28 191C1116.28 202.76 1104.4 212.24 1082.08 212.24C1067.08 212.24 1054 207.08 1043.92 198.2L1050.16 192.32C1058.68 199.52 1068.64 204.08 1082.32 204.08C1095.88 204.08 1106.56 199.88 1106.56 191.96C1106.56 183.8 1096.84 181.64 1080.16 180.2C1062.88 178.76 1046.44 175.04 1046.44 161.6C1046.44 148.76 1060.84 141.8 1080.16 141.8C1093.36 141.8 1105.72 147.08 1112.92 152.96L1106.68 159.56C1100.56 154.28 1091.8 150.08 1079.68 149.96C1069.72 149.84 1056.16 152.24 1056.16 161C1056.16 169.16 1067.92 170.72 1082.2 171.8Z" fill="white"/>
<path d="M964.976 179.12C965.936 195.68 977.936 203.84 995.336 203.84C1008.3 203.84 1016.1 200.6 1023.66 193.52L1030.14 200.36C1021.26 208.4 1010.34 212.24 994.856 212.24C969.536 212.24 955.016 198.56 955.016 177.08C955.016 155.48 969.536 141.8 994.256 141.8C1017.54 141.8 1032.42 154.4 1032.42 176.96C1032.42 178.04 1032.3 178.64 1032.18 179.12H964.976ZM994.376 150.2C979.256 150.2 967.976 157.16 965.456 170.96H1022.46C1019.58 156.44 1008.42 150.2 994.376 150.2Z" fill="white"/>
<path d="M875.203 209.72H865.363V144.32H875.203V157.88C881.323 148.04 892.363 141.92 906.403 141.92C926.683 141.92 936.403 154.88 936.403 172.76V209.72H926.563V173.48C926.563 158.72 919.243 150.68 904.483 150.68C891.763 150.68 881.203 156.56 875.203 168.68V209.72Z" fill="white"/>
<path d="M836.308 134.24C832.348 134.24 829.348 131.36 829.348 127.88C829.348 124.28 832.348 121.52 836.308 121.52C840.268 121.52 843.268 124.28 843.268 127.88C843.268 131.36 840.268 134.24 836.308 134.24ZM841.228 144.32V209.72H831.388V144.32H841.228Z" fill="white"/>
<path d="M752.092 200.36H816.412V209.72H742.012V125.72H752.092V200.36Z" fill="white"/>
<path d="M662.865 181.52C664.785 191.6 672.825 195.68 686.265 195.68C696.825 195.68 703.185 193.16 709.785 188.12L721.785 200.72C712.305 209.12 700.065 212.48 684.945 212.48C656.745 212.48 640.305 198.8 640.305 176.48C640.305 154.16 656.505 140.48 683.145 140.48C707.145 140.48 724.185 152.48 724.185 176C724.185 178.64 724.065 180.2 723.585 181.52H662.865ZM683.385 157.04C673.185 157.04 666.105 160.76 663.465 168.8L702.345 168.56C699.825 160.76 693.465 157.04 683.385 157.04Z" fill="white"/>
<path d="M607.671 209.72H584.031V143.24H607.671V155.6C613.191 146.24 623.631 141.68 635.511 141.68V161.36C621.351 161.36 611.151 166.76 607.671 177.68V209.72Z" fill="white"/>
<path d="M527.771 212.48C501.011 212.48 484.211 198.68 484.211 176.48C484.211 154.16 501.011 140.6 527.771 140.6C554.411 140.6 571.211 154.16 571.211 176.48C571.211 198.68 554.411 212.48 527.771 212.48ZM527.771 194.24C539.891 194.24 548.651 188.12 548.651 176.48C548.651 164.72 539.891 158.72 527.771 158.72C515.651 158.72 506.891 164.72 506.891 176.48C506.891 188.12 515.651 194.24 527.771 194.24Z" fill="white"/>
<path d="M430.64 192.56C441.92 192.56 450.56 188.72 456.44 179.72L477.44 190.52C469.64 202.88 452.72 212.48 430.04 212.48C398.36 212.48 377 196.04 377 167.72C377 139.4 398.36 122.96 431 122.96C452.72 122.96 469.52 132.8 477.08 144.8L455.96 155.6C450.44 146.96 441.92 142.88 430.64 142.88C413.36 142.88 401.84 151.64 401.84 167.72C401.84 183.8 413.36 192.56 430.64 192.56Z" fill="white"/>
<defs>
<clipPath id="clip0_807_2718">
<rect width="332" height="333" fill="white" transform="translate(0 0.5)"/>
</clipPath>
</defs>
</svg>
