<svg width="1028" height="270" viewBox="0 0 1028 270" fill="none" xmlns="http://www.w3.org/2000/svg">
<path opacity="0.4" d="M130.066 245.658C130.066 253.458 129.111 261.044 127.313 268.295L102.236 243.142C100.953 208.657 73.221 180.841 38.8393 179.555L13.7617 154.402C20.9909 152.599 28.555 151.641 36.3316 151.641C88.0143 151.641 130.066 193.819 130.066 245.658Z" fill="#FFAB00"/>
<path opacity="0.4" d="M256.582 154.402L231.504 179.555C197.123 180.841 169.39 208.657 168.108 243.142L143.03 268.295C141.233 261.044 140.277 253.458 140.277 245.658C140.277 193.819 182.329 151.641 234.012 151.641C241.789 151.641 249.353 152.599 256.582 154.402Z" fill="#FFAB00"/>
<path d="M256.582 136.18C249.352 137.983 241.788 138.941 234.012 138.941C182.672 138.941 140.832 97.3198 140.293 45.9484H130.05C129.511 97.3198 87.6712 138.941 36.3316 138.941C28.555 138.941 20.9909 137.983 13.7617 136.18L38.8393 111.027C73.221 109.741 100.953 81.9247 102.236 47.4395C102.268 46.948 102.277 46.4482 102.277 45.9484H81.7081L100.659 30.2666L123.793 11.1191L135.172 1.70508L146.55 11.1191L169.684 30.2666L188.635 45.9484H168.067C168.067 46.4482 168.075 46.948 168.107 47.4395C169.39 81.9247 197.122 109.741 231.504 111.027L256.582 136.18Z" fill="#FFAB00"/>
<path d="M977.431 93C1008.15 93 1027.83 109.2 1027.83 135C1027.83 160.8 1008.15 177 977.431 177H936.631V93H977.431ZM976.711 167.64C1000.59 167.64 1017.51 156.48 1017.51 135C1017.51 113.52 1000.59 102.36 976.711 102.36H946.711V167.64H976.711Z" fill="#FFAB00"/>
<path d="M855.656 167.64H919.976V177H845.576V93H855.656V167.64Z" fill="#FFAB00"/>
<path d="M753.703 167.64H824.863V177H743.623V93H823.663V102.36H753.703V129.6H812.983V138.96H753.703V167.64Z" fill="#FFAB00"/>
<path d="M626.039 148.8C627.959 158.88 635.999 162.96 649.439 162.96C659.999 162.96 666.359 160.44 672.959 155.4L684.959 168C675.479 176.4 663.239 179.76 648.118 179.76C619.918 179.76 603.479 166.08 603.479 143.76C603.479 121.44 619.679 107.76 646.319 107.76C670.319 107.76 687.359 119.76 687.359 143.28C687.359 145.92 687.239 147.48 686.759 148.8H626.039ZM646.559 124.32C636.359 124.32 629.279 128.04 626.639 136.08L665.519 135.84C662.999 128.04 656.639 124.32 646.559 124.32Z" fill="#FFAB00"/>
<path d="M570.843 177H547.203V110.52H570.843V122.88C576.363 113.52 586.803 108.96 598.683 108.96V128.64C584.523 128.64 574.323 134.04 570.843 144.96V177Z" fill="#FFAB00"/>
<path d="M490.945 179.76C464.185 179.76 447.385 165.96 447.385 143.76C447.385 121.44 464.185 107.88 490.945 107.88C517.585 107.88 534.385 121.44 534.385 143.76C534.385 165.96 517.585 179.76 490.945 179.76ZM490.945 161.52C503.065 161.52 511.825 155.4 511.825 143.76C511.825 132 503.065 126 490.945 126C478.825 126 470.065 132 470.065 143.76C470.065 155.4 478.825 161.52 490.945 161.52Z" fill="#FFAB00"/>
<path d="M393.812 159.84C405.092 159.84 413.732 156 419.612 147L440.612 157.8C432.812 170.16 415.892 179.76 393.212 179.76C361.532 179.76 340.172 163.32 340.172 135C340.172 106.68 361.532 90.2402 394.172 90.2402C415.892 90.2402 432.692 100.08 440.252 112.08L419.132 122.88C413.612 114.24 405.092 110.16 393.812 110.16C376.532 110.16 365.012 118.92 365.012 135C365.012 151.08 376.532 159.84 393.812 159.84Z" fill="#FFAB00"/>
</svg>
