<svg width="12" height="12" viewBox="0 0 12 12" fill="none" xmlns="http://www.w3.org/2000/svg">
<g clip-path="url(#clip0_4493_11665)">
<path d="M9.5 1V0H8.5V1H7.5V0H6.5V1H5.5V0H4.5V1H3.5V0H2.5V1H1.5V10.5C1.5 10.8978 1.65804 11.2794 1.93934 11.5607C2.22064 11.842 2.60218 12 3 12H9C9.39782 12 9.77936 11.842 10.0607 11.5607C10.342 11.2794 10.5 10.8978 10.5 10.5V1H9.5ZM9.5 10.5C9.5 10.6326 9.44732 10.7598 9.35355 10.8536C9.25979 10.9473 9.13261 11 9 11H3C2.86739 11 2.74021 10.9473 2.64645 10.8536C2.55268 10.7598 2.5 10.6326 2.5 10.5V2H9.5V10.5ZM8.5 4.5H3.5V3.5H8.5V4.5ZM8.5 6.5H3.5V5.5H8.5V6.5ZM6.5 8.5H3.5V7.5H6.5V8.5Z" fill="#7E7E9A"/>
</g>
<defs>
<clipPath id="clip0_4493_11665">
<rect width="12" height="12" fill="white"/>
</clipPath>
</defs>
</svg>
