<svg width="16" height="16" viewBox="0 0 16 16" fill="none" xmlns="http://www.w3.org/2000/svg">
<g clip-path="url(#clip0_913_52158)">
<path d="M16 10.6664V13.9997C16 14.5301 15.7893 15.0388 15.4142 15.4139C15.0391 15.789 14.5304 15.9997 14 15.9997H10.6667C9.7314 15.9987 8.81283 15.7518 8.0031 15.2838C7.19337 14.8157 6.52097 14.143 6.05333 13.333C6.55591 13.3294 7.05678 13.274 7.548 13.1677C7.9221 13.6354 8.39666 14.013 8.93653 14.2725C9.47639 14.5319 10.0677 14.6665 10.6667 14.6664H14C14.1768 14.6664 14.3464 14.5961 14.4714 14.4711C14.5964 14.3461 14.6667 14.1765 14.6667 13.9997V10.6664C14.6665 10.0672 14.5315 9.47572 14.2716 8.93584C14.0117 8.39596 13.6336 7.92152 13.1653 7.54768C13.2726 7.05656 13.3289 6.55569 13.3333 6.05302C14.1433 6.52065 14.8161 7.19306 15.2841 8.00278C15.7522 8.81251 15.999 9.73108 16 10.6664ZM11.9847 6.43368C12.047 5.57478 11.9237 4.71251 11.6232 3.90548C11.3227 3.09845 10.852 2.36557 10.2431 1.75663C9.63412 1.14769 8.90123 0.67697 8.0942 0.376453C7.28717 0.0759362 6.42491 -0.0473353 5.566 0.0150151C4.04394 0.188837 2.63795 0.913133 1.61278 2.05151C0.587618 3.18989 0.0140181 4.6638 0 6.19568L0 9.55568C0 11.2437 1.00467 11.9997 2 11.9997H5.8C7.33254 11.9865 8.80734 11.4133 9.94653 10.388C11.0857 9.36282 11.8106 7.95636 11.9847 6.43368ZM9.3 2.70035C9.77329 3.17468 10.1392 3.74515 10.3729 4.37314C10.6066 5.00113 10.7027 5.672 10.6547 6.34035C10.5124 7.52947 9.94033 8.62556 9.04622 9.42231C8.1521 10.2191 6.99759 10.6615 5.8 10.6664H2C1.38133 10.6664 1.33333 9.81635 1.33333 9.55568V6.19568C1.33889 4.9986 1.78177 3.84482 2.57861 2.95147C3.37546 2.05812 4.47133 1.48679 5.66 1.34502C5.77067 1.33702 5.88133 1.33302 5.992 1.33302C6.60618 1.33244 7.21445 1.45291 7.78206 1.68752C8.34966 1.92213 8.86547 2.2663 9.3 2.70035Z" fill="#FFAB00"/>
</g>
<defs>
<clipPath id="clip0_913_52158">
<rect width="16" height="16" fill="white"/>
</clipPath>
</defs>
</svg>
