<svg width="12" height="12" viewBox="0 0 12 12" fill="none" xmlns="http://www.w3.org/2000/svg">
<g clip-path="url(#clip0_4509_26243)">
<path d="M12 6C12 6.13261 11.9473 6.25979 11.8536 6.35355C11.7598 6.44732 11.6326 6.5 11.5 6.5C11.3674 6.5 11.2402 6.44732 11.1464 6.35355C11.0527 6.25979 11 6.13261 11 6C10.9985 4.67436 10.4713 3.40344 9.53393 2.46607C8.59656 1.52871 7.32564 1.00146 6 1C5.86739 1 5.74021 0.947322 5.64645 0.853553C5.55268 0.759785 5.5 0.632608 5.5 0.5C5.5 0.367392 5.55268 0.240215 5.64645 0.146447C5.74021 0.0526784 5.86739 0 6 0C7.59077 0.00172054 9.1159 0.634414 10.2407 1.75926C11.3656 2.88411 11.9983 4.40923 12 6ZM8 6.5C8.13261 6.5 8.25979 6.44732 8.35355 6.35355C8.44732 6.25979 8.5 6.13261 8.5 6C8.5 5.86739 8.44732 5.74021 8.35355 5.64645C8.25979 5.55268 8.13261 5.5 8 5.5H6.8615C6.77436 5.35021 6.64979 5.22564 6.5 5.1385V3.5C6.5 3.36739 6.44732 3.24021 6.35355 3.14645C6.25979 3.05268 6.13261 3 6 3C5.86739 3 5.74021 3.05268 5.64645 3.14645C5.55268 3.24021 5.5 3.36739 5.5 3.5V5.1385C5.36739 5.21486 5.25413 5.32072 5.169 5.44788C5.08387 5.57504 5.02916 5.72009 5.0091 5.8718C4.98903 6.0235 5.00416 6.17779 5.05331 6.32271C5.10245 6.46763 5.1843 6.59929 5.29251 6.70749C5.40071 6.8157 5.53237 6.89755 5.67729 6.94669C5.82221 6.99584 5.9765 7.01097 6.1282 6.9909C6.27991 6.97084 6.42496 6.91613 6.55212 6.831C6.67928 6.74587 6.78514 6.63261 6.8615 6.5H8ZM0.9135 3.392C0.81461 3.392 0.71794 3.42132 0.635715 3.47627C0.553491 3.53121 0.489404 3.6093 0.45156 3.70066C0.413717 3.79202 0.403815 3.89255 0.423108 3.98955C0.4424 4.08654 0.490021 4.17563 0.559947 4.24555C0.629873 4.31548 0.718965 4.3631 0.815955 4.38239C0.912946 4.40169 1.01348 4.39178 1.10484 4.35394C1.19621 4.3161 1.27429 4.25201 1.32924 4.16979C1.38418 4.08756 1.4135 3.99089 1.4135 3.892C1.4135 3.75939 1.36082 3.63221 1.26705 3.53845C1.17329 3.44468 1.04611 3.392 0.9135 3.392ZM1 6C1 5.90111 0.970676 5.80444 0.915735 5.72221C0.860794 5.63999 0.782705 5.5759 0.691342 5.53806C0.599979 5.50022 0.499446 5.49031 0.402455 5.50961C0.305465 5.5289 0.216373 5.57652 0.146447 5.64645C0.0765206 5.71637 0.0289002 5.80546 0.00960758 5.90245C-0.00968503 5.99945 0.000216641 6.09998 0.0380605 6.19134C0.0759043 6.2827 0.139991 6.36079 0.222215 6.41573C0.30444 6.47068 0.40111 6.5 0.5 6.5C0.632608 6.5 0.759785 6.44732 0.853554 6.35355C0.947322 6.25979 1 6.13261 1 6ZM6 11C5.90111 11 5.80444 11.0293 5.72221 11.0843C5.63999 11.1392 5.5759 11.2173 5.53806 11.3087C5.50022 11.4 5.49031 11.5006 5.50961 11.5975C5.5289 11.6945 5.57652 11.7836 5.64645 11.8536C5.71637 11.9235 5.80546 11.9711 5.90245 11.9904C5.99945 12.0097 6.09998 11.9998 6.19134 11.9619C6.2827 11.9241 6.36079 11.86 6.41573 11.7778C6.47068 11.6956 6.5 11.5989 6.5 11.5C6.5 11.3674 6.44732 11.2402 6.35355 11.1464C6.25979 11.0527 6.13261 11 6 11ZM2.1105 1.6035C2.01161 1.6035 1.91494 1.63282 1.83272 1.68777C1.75049 1.74271 1.6864 1.8208 1.64856 1.91216C1.61072 2.00352 1.60082 2.10405 1.62011 2.20105C1.6394 2.29804 1.68702 2.38713 1.75695 2.45705C1.82687 2.52698 1.91596 2.5746 2.01296 2.59389C2.10995 2.61319 2.21048 2.60328 2.30184 2.56544C2.3932 2.5276 2.47129 2.46351 2.52624 2.38129C2.58118 2.29906 2.6105 2.20239 2.6105 2.1035C2.6105 1.97089 2.55782 1.84371 2.46405 1.74995C2.37029 1.65618 2.24311 1.6035 2.1105 1.6035ZM3.8895 0.4205C3.79061 0.4205 3.69394 0.449825 3.61172 0.504765C3.52949 0.559706 3.4654 0.637795 3.42756 0.729158C3.38972 0.820521 3.37982 0.921055 3.39911 1.01805C3.4184 1.11504 3.46602 1.20413 3.53595 1.27405C3.60587 1.34398 3.69496 1.3916 3.79195 1.41089C3.88895 1.43019 3.98948 1.42028 4.08084 1.38244C4.1722 1.3446 4.25029 1.28051 4.30523 1.19829C4.36018 1.11606 4.3895 1.01939 4.3895 0.9205C4.3895 0.787892 4.33682 0.660715 4.24305 0.566947C4.14929 0.473178 4.02211 0.4205 3.8895 0.4205ZM0.9135 7.608C0.81461 7.608 0.71794 7.63732 0.635715 7.69227C0.553491 7.74721 0.489404 7.8253 0.45156 7.91666C0.413717 8.00802 0.403815 8.10855 0.423108 8.20555C0.4424 8.30254 0.490021 8.39163 0.559947 8.46155C0.629873 8.53148 0.718965 8.5791 0.815955 8.59839C0.912946 8.61769 1.01348 8.60778 1.10484 8.56994C1.19621 8.5321 1.27429 8.46801 1.32924 8.38579C1.38418 8.30356 1.4135 8.20689 1.4135 8.108C1.4135 7.97539 1.36082 7.84821 1.26705 7.75445C1.17329 7.66068 1.04611 7.608 0.9135 7.608ZM2.1105 9.3965C2.01161 9.3965 1.91494 9.42582 1.83272 9.48077C1.75049 9.53571 1.6864 9.6138 1.64856 9.70516C1.61072 9.79652 1.60082 9.89705 1.62011 9.99405C1.6394 10.091 1.68702 10.1801 1.75695 10.2501C1.82687 10.32 1.91596 10.3676 2.01296 10.3869C2.10995 10.4062 2.21048 10.3963 2.30184 10.3584C2.3932 10.3206 2.47129 10.2565 2.52624 10.1743C2.58118 10.0921 2.6105 9.99539 2.6105 9.8965C2.6105 9.76389 2.55782 9.63671 2.46405 9.54295C2.37029 9.44918 2.24311 9.3965 2.1105 9.3965ZM3.8895 10.5795C3.79061 10.5795 3.69394 10.6088 3.61172 10.6638C3.52949 10.7187 3.4654 10.7968 3.42756 10.8882C3.38972 10.9795 3.37982 11.0801 3.39911 11.177C3.4184 11.274 3.46602 11.3631 3.53595 11.4331C3.60587 11.503 3.69496 11.5506 3.79195 11.5699C3.88895 11.5892 3.98948 11.5793 4.08084 11.5414C4.1722 11.5036 4.25029 11.4395 4.30523 11.3573C4.36018 11.2751 4.3895 11.1784 4.3895 11.0795C4.3895 10.9469 4.33682 10.8197 4.24305 10.7259C4.14929 10.6322 4.02211 10.5795 3.8895 10.5795ZM11.0865 7.608C10.9876 7.608 10.8909 7.63732 10.8087 7.69227C10.7265 7.74721 10.6624 7.8253 10.6246 7.91666C10.5867 8.00802 10.5768 8.10855 10.5961 8.20555C10.6154 8.30254 10.663 8.39163 10.7329 8.46155C10.8029 8.53148 10.892 8.5791 10.989 8.59839C11.0859 8.61769 11.1865 8.60778 11.2778 8.56994C11.3692 8.5321 11.4473 8.46801 11.5022 8.38579C11.5572 8.30356 11.5865 8.20689 11.5865 8.108C11.5865 7.97539 11.5338 7.84821 11.4401 7.75445C11.3463 7.66068 11.2191 7.608 11.0865 7.608ZM9.8895 9.3965C9.79061 9.3965 9.69394 9.42582 9.61172 9.48077C9.52949 9.53571 9.4654 9.6138 9.42756 9.70516C9.38972 9.79652 9.37981 9.89705 9.39911 9.99405C9.4184 10.091 9.46602 10.1801 9.53595 10.2501C9.60587 10.32 9.69496 10.3676 9.79195 10.3869C9.88895 10.4062 9.98948 10.3963 10.0808 10.3584C10.1722 10.3206 10.2503 10.2565 10.3052 10.1743C10.3602 10.0921 10.3895 9.99539 10.3895 9.8965C10.3895 9.76389 10.3368 9.63671 10.2431 9.54295C10.1493 9.44918 10.0221 9.3965 9.8895 9.3965ZM8.1105 10.5795C8.01161 10.5795 7.91494 10.6088 7.83272 10.6638C7.75049 10.7187 7.6864 10.7968 7.64856 10.8882C7.61072 10.9795 7.60081 11.0801 7.62011 11.177C7.6394 11.274 7.68702 11.3631 7.75695 11.4331C7.82687 11.503 7.91596 11.5506 8.01295 11.5699C8.10995 11.5892 8.21048 11.5793 8.30184 11.5414C8.3932 11.5036 8.47129 11.4395 8.52623 11.3573C8.58118 11.2751 8.6105 11.1784 8.6105 11.0795C8.6105 10.9469 8.55782 10.8197 8.46405 10.7259C8.37029 10.6322 8.24311 10.5795 8.1105 10.5795Z" fill="#403E54"/>
</g>
<defs>
<clipPath id="clip0_4509_26243">
<rect width="12" height="12" fill="white"/>
</clipPath>
</defs>
</svg>
