<svg width="22" height="31" viewBox="0 0 22 31" fill="none" xmlns="http://www.w3.org/2000/svg">
<path d="M11.2499 11.8693C11.1676 11.8697 11.0861 11.854 11.0099 11.8229C10.9338 11.7918 10.8645 11.7459 10.8061 11.688L7.94362 8.81927C7.88552 8.76069 7.81639 8.71419 7.74023 8.68246C7.66407 8.65073 7.58238 8.6344 7.49987 8.6344C7.41736 8.6344 7.33567 8.65073 7.25951 8.68246C7.18335 8.71419 7.11422 8.76069 7.05612 8.81927L4.19362 11.688C4.07593 11.8057 3.91631 11.8718 3.74987 11.8718C3.58343 11.8718 3.42381 11.8057 3.30612 11.688C3.18843 11.5703 3.12231 11.4107 3.12231 11.2443C3.12231 11.1619 3.13855 11.0802 3.17008 11.0041C3.20162 10.928 3.24785 10.8588 3.30612 10.8005L6.17487 7.93802C6.53109 7.59579 7.0059 7.40466 7.49987 7.40466C7.99384 7.40466 8.46866 7.59579 8.82487 7.93802L11.6936 10.8005C11.7522 10.8586 11.7987 10.9277 11.8304 11.0039C11.8622 11.0801 11.8785 11.1618 11.8785 11.2443C11.8785 11.3268 11.8622 11.4085 11.8304 11.4846C11.7987 11.5608 11.7522 11.6299 11.6936 11.688C11.6352 11.7459 11.566 11.7918 11.4898 11.8229C11.4137 11.854 11.3321 11.8697 11.2499 11.8693Z" fill="#8A8996"/>
<path d="M11.6936 19.313C11.6355 19.2545 11.5664 19.208 11.4902 19.1762C11.4141 19.1445 11.3324 19.1282 11.2499 19.1282C11.1674 19.1282 11.0857 19.1445 11.0095 19.1762C10.9334 19.208 10.8642 19.2545 10.8061 19.313L7.94364 22.1755C7.88553 22.2341 7.81641 22.2806 7.74025 22.3123C7.66408 22.3441 7.58239 22.3604 7.49989 22.3604C7.41738 22.3604 7.33569 22.3441 7.25952 22.3123C7.18336 22.2806 7.11424 22.2341 7.05614 22.1755L4.19364 19.313C4.13553 19.2545 4.06641 19.208 3.99025 19.1762C3.91408 19.1445 3.83239 19.1282 3.74989 19.1282C3.66738 19.1282 3.58569 19.1445 3.50952 19.1762C3.43336 19.208 3.36424 19.2545 3.30613 19.313C3.18973 19.4301 3.12439 19.5886 3.12439 19.7537C3.12439 19.9188 3.18973 20.0772 3.30613 20.1943L6.17489 23.063C6.52645 23.4142 7.00301 23.6114 7.49989 23.6114C7.99676 23.6114 8.47332 23.4142 8.82489 23.063L11.6936 20.1943C11.81 20.0772 11.8754 19.9188 11.8754 19.7537C11.8754 19.5886 11.81 19.4301 11.6936 19.313Z" fill="#8A8996"/>
<path d="M17.6667 18.3333C17.5651 18.2317 17.4273 18.1747 17.2837 18.1747C17.1401 18.1747 17.0023 18.2317 16.9007 18.3333L15.5 19.734L14.0992 18.3333C13.9971 18.2346 13.8603 18.18 13.7182 18.1812C13.5762 18.1825 13.4404 18.2394 13.3399 18.3399C13.2395 18.4403 13.1825 18.5762 13.1813 18.7182C13.1801 18.8602 13.2347 18.997 13.3333 19.0992L14.7341 20.4999L13.3333 21.9007C13.2347 22.0029 13.1801 22.1397 13.1813 22.2817C13.1825 22.4237 13.2395 22.5596 13.3399 22.66C13.4404 22.7604 13.5762 22.8174 13.7182 22.8186C13.8603 22.8199 13.9971 22.7653 14.0992 22.6666L15.5 21.2659L16.9007 22.6666C17.0029 22.7653 17.1397 22.8199 17.2817 22.8186C17.4238 22.8174 17.5596 22.7604 17.6601 22.66C17.7605 22.5596 17.8174 22.4237 17.8187 22.2817C17.8199 22.1397 17.7653 22.0029 17.6667 21.9007L16.2659 20.4999L17.6667 19.0992C17.7682 18.9976 17.8252 18.8599 17.8252 18.7162C17.8252 18.5726 17.7682 18.4349 17.6667 18.3333Z" fill="#8A8996"/>
</svg>
