<svg width="22" height="20" viewBox="0 0 22 20" fill="none" xmlns="http://www.w3.org/2000/svg">
<g clip-path="url(#clip0_1891_79440)">
<path d="M9.33336 16C9.18911 16 9.04876 15.9532 8.93336 15.8667L6.26669 13.8667C6.1839 13.8046 6.11669 13.724 6.07041 13.6315C6.02412 13.5389 6.00003 13.4368 6.00003 13.3333V9.58667L1.32269 4.32467C0.990508 3.94992 0.773614 3.48721 0.698081 2.99216C0.622548 2.4971 0.69159 1.99077 0.89691 1.53401C1.10223 1.07725 1.43509 0.689506 1.85548 0.417377C2.27587 0.145249 2.76591 0.000316279 3.26669 0L12.7334 0C13.2341 0.000587367 13.724 0.14576 14.1442 0.418071C14.5645 0.690383 14.8971 1.07825 15.1022 1.53506C15.3073 1.99187 15.3761 2.49818 15.3004 2.99316C15.2247 3.48815 15.0076 3.95073 14.6754 4.32533L10 9.58667V15.3333C10 15.5101 9.92979 15.6797 9.80477 15.8047C9.67974 15.9298 9.51017 16 9.33336 16ZM7.33336 13L8.66669 14V9.33333C8.66683 9.1701 8.72684 9.0126 8.83536 8.89067L13.6807 3.43933C13.8423 3.25672 13.9477 3.03136 13.9843 2.7903C14.021 2.54924 13.9872 2.30274 13.8872 2.08037C13.7872 1.85801 13.6251 1.66924 13.4204 1.53673C13.2158 1.40421 12.9772 1.33359 12.7334 1.33333H3.26669C3.023 1.3337 2.78458 1.40436 2.58003 1.53684C2.37549 1.66932 2.2135 1.858 2.1135 2.08023C2.0135 2.30247 1.97973 2.54884 2.01625 2.78979C2.05276 3.03074 2.15801 3.25604 2.31936 3.43867L7.16536 8.89067C7.27364 9.0127 7.33341 9.17019 7.33336 9.33333V13Z" fill="#8A8996"/>
</g>
<path d="M17.6667 11.3333C17.5651 11.2317 17.4273 11.1747 17.2837 11.1747C17.1401 11.1747 17.0023 11.2317 16.9007 11.3333L15.5 12.734L14.0992 11.3333C13.9971 11.2346 13.8603 11.18 13.7182 11.1812C13.5762 11.1825 13.4404 11.2394 13.3399 11.3399C13.2395 11.4403 13.1825 11.5762 13.1813 11.7182C13.1801 11.8602 13.2347 11.997 13.3333 12.0992L14.7341 13.4999L13.3333 14.9007C13.2347 15.0029 13.1801 15.1397 13.1813 15.2817C13.1825 15.4237 13.2395 15.5596 13.3399 15.66C13.4404 15.7604 13.5762 15.8174 13.7182 15.8186C13.8603 15.8199 13.9971 15.7653 14.0992 15.6666L15.5 14.2659L16.9007 15.6666C17.0029 15.7653 17.1397 15.8199 17.2817 15.8186C17.4238 15.8174 17.5596 15.7604 17.6601 15.66C17.7605 15.5596 17.8174 15.4237 17.8187 15.2817C17.8199 15.1397 17.7653 15.0029 17.6667 14.9007L16.2659 13.4999L17.6667 12.0992C17.7682 11.9976 17.8252 11.8599 17.8252 11.7162C17.8252 11.5726 17.7682 11.4349 17.6667 11.3333Z" fill="#8A8996"/>
<defs>
<clipPath id="clip0_1891_79440">
<rect width="16" height="16" fill="white"/>
</clipPath>
</defs>
</svg>
