<svg width="16" height="16" viewBox="0 0 16 16" fill="none" xmlns="http://www.w3.org/2000/svg">
<g clip-path="url(#clip0_913_52152)">
<path d="M0.666735 15.9996C0.843546 15.9996 1.01312 15.9293 1.13814 15.8043C1.26316 15.6793 1.3334 15.5097 1.3334 15.3329C1.33446 14.2724 1.75623 13.2556 2.50614 12.5057C3.25606 11.7557 4.27286 11.334 5.3334 11.3329H9.22007V12.3902C9.22013 12.6539 9.29836 12.9116 9.44487 13.1309C9.59138 13.3501 9.7996 13.5209 10.0432 13.6218C10.2868 13.7227 10.5548 13.7491 10.8134 13.6977C11.072 13.6463 11.3096 13.5193 11.4961 13.3329L15.4154 9.41359C15.7903 9.03853 16.001 8.52991 16.001 7.99959C16.001 7.46926 15.7903 6.96064 15.4154 6.58559L11.4961 2.66626C11.3096 2.47985 11.072 2.35291 10.8134 2.30148C10.5548 2.25006 10.2868 2.27646 10.0432 2.37736C9.7996 2.47825 9.59138 2.6491 9.44487 2.86832C9.29836 3.08753 9.22013 3.34526 9.22007 3.60893V4.66626H6.00007C4.40931 4.66802 2.88421 5.30073 1.75938 6.42556C0.63454 7.5504 0.00183296 9.07549 6.86646e-05 10.6663V15.3329C6.86646e-05 15.5097 0.0703058 15.6793 0.19533 15.8043C0.320354 15.9293 0.489923 15.9996 0.666735 15.9996ZM10.5534 3.60893L14.4727 7.52825C14.5977 7.65327 14.6679 7.82281 14.6679 7.99959C14.6679 8.17636 14.5977 8.3459 14.4727 8.47092L10.5534 12.3902V10.6663C10.5534 10.4894 10.4832 10.3199 10.3581 10.1948C10.2331 10.0698 10.0635 9.99958 9.88674 9.99958H5.3334C4.57634 9.99936 3.82794 10.1606 3.13817 10.4726C2.44839 10.7846 1.83311 11.2402 1.3334 11.8089V10.6663C1.33481 9.42901 1.82693 8.24284 2.7018 7.36798C3.57666 6.49312 4.76283 6.001 6.00007 5.99959H9.88674C10.0635 5.99959 10.2331 5.92935 10.3581 5.80433C10.4832 5.6793 10.5534 5.50973 10.5534 5.33292V3.60893Z" fill="#FFAB00"/>
</g>
<defs>
<clipPath id="clip0_913_52152">
<rect width="16" height="16" fill="white" transform="matrix(-1 0 0 1 16 0)"/>
</clipPath>
</defs>
</svg>
