<svg width="16" height="17" viewBox="0 0 16 17" fill="none" xmlns="http://www.w3.org/2000/svg">
<g clip-path="url(#clip0_5007_19462)">
<path d="M8 0.272461C6.03034 0.273865 4.13075 1.00354 2.66667 2.32113V0.939128C2.66667 0.762317 2.59643 0.592747 2.4714 0.467723C2.34638 0.342699 2.17681 0.272461 2 0.272461C1.82319 0.272461 1.65362 0.342699 1.5286 0.467723C1.40357 0.592747 1.33333 0.762317 1.33333 0.939128V2.93913C1.33333 3.46956 1.54405 3.97827 1.91912 4.35334C2.29419 4.72841 2.8029 4.93913 3.33333 4.93913H5.33333C5.51015 4.93913 5.67971 4.86889 5.80474 4.74387C5.92976 4.61884 6 4.44927 6 4.27246C6 4.09565 5.92976 3.92608 5.80474 3.80106C5.67971 3.67603 5.51015 3.60579 5.33333 3.60579H3.33333C3.31085 3.60246 3.28859 3.59779 3.26667 3.59179C4.35301 2.49768 5.78542 1.81451 7.31938 1.6589C8.85333 1.5033 10.3938 1.8849 11.6777 2.73857C12.9616 3.59224 13.9095 4.86506 14.3595 6.33976C14.8094 7.81447 14.7337 9.39963 14.1451 10.8247C13.5564 12.2497 12.4915 13.4263 11.132 14.1536C9.77246 14.8809 8.20266 15.1138 6.69054 14.8126C5.17843 14.5114 3.81772 13.6947 2.8407 12.5019C1.86368 11.3092 1.33091 9.81429 1.33333 8.27246C1.33333 8.09565 1.2631 7.92608 1.13807 7.80106C1.01305 7.67603 0.843478 7.60579 0.666667 7.60579C0.489856 7.60579 0.320286 7.67603 0.195262 7.80106C0.0702379 7.92608 0 8.09565 0 8.27246C0 9.85471 0.469192 11.4014 1.34824 12.717C2.22729 14.0326 3.47672 15.058 4.93853 15.6635C6.40034 16.269 8.00887 16.4274 9.56072 16.1187C11.1126 15.8101 12.538 15.0481 13.6569 13.9293C14.7757 12.8105 15.5376 11.385 15.8463 9.83318C16.155 8.28134 15.9965 6.6728 15.391 5.21099C14.7855 3.74919 13.7602 2.49976 12.4446 1.6207C11.129 0.741653 9.58225 0.272461 8 0.272461V0.272461Z" fill="#FFAB00"/>
<path d="M8.00065 4.27246C7.82384 4.27246 7.65427 4.3427 7.52925 4.46772C7.40422 4.59275 7.33398 4.76232 7.33398 4.93913V8.27246C7.33402 8.44926 7.40428 8.6188 7.52932 8.74379L9.52932 10.7438C9.65505 10.8652 9.82345 10.9324 9.99825 10.9309C10.173 10.9294 10.3403 10.8593 10.4639 10.7357C10.5875 10.6121 10.6576 10.4449 10.6591 10.2701C10.6606 10.0953 10.5934 9.92686 10.472 9.80113L8.66732 7.99646V4.93913C8.66732 4.76232 8.59708 4.59275 8.47206 4.46772C8.34703 4.3427 8.17746 4.27246 8.00065 4.27246Z" fill="#FFAB00"/>
</g>
<defs>
<clipPath id="clip0_5007_19462">
<rect width="16" height="16" fill="white" transform="translate(0 0.272461)"/>
</clipPath>
</defs>
</svg>
