<svg width="12" height="12" viewBox="0 0 12 12" fill="none" xmlns="http://www.w3.org/2000/svg">
<g clip-path="url(#clip0_4978_25118)">
<path d="M8.50008 12C7.80785 12 7.13116 11.7947 6.55558 11.4101C5.98001 11.0256 5.53141 10.4789 5.2665 9.83939C5.0016 9.19985 4.93228 8.49612 5.06733 7.81719C5.20238 7.13825 5.53572 6.51461 6.02521 6.02513C6.51469 5.53565 7.13833 5.2023 7.81726 5.06725C8.4962 4.93221 9.19993 5.00152 9.83947 5.26642C10.479 5.53133 11.0256 5.97993 11.4102 6.55551C11.7948 7.13108 12.0001 7.80777 12.0001 8.5C11.999 9.42793 11.6299 10.3176 10.9738 10.9737C10.3176 11.6299 9.42801 11.9989 8.50008 12ZM8.50008 6C8.00563 6 7.52228 6.14662 7.11115 6.42133C6.70003 6.69603 6.3796 7.08648 6.19038 7.54329C6.00116 8.00011 5.95165 8.50278 6.04812 8.98773C6.14458 9.47268 6.38268 9.91814 6.73231 10.2678C7.08194 10.6174 7.5274 10.8555 8.01235 10.952C8.49731 11.0484 8.99997 10.9989 9.45679 10.8097C9.9136 10.6205 10.3041 10.3001 10.5788 9.88893C10.8535 9.47781 11.0001 8.99446 11.0001 8.5C10.9993 7.8372 10.7356 7.20178 10.267 6.73311C9.7983 6.26444 9.16288 6.0008 8.50008 6ZM9.35358 9.3535C9.44732 9.25974 9.49997 9.13258 9.49997 9C9.49997 8.86742 9.44732 8.74027 9.35358 8.6465L9.00008 8.293V7.5C9.00008 7.36739 8.9474 7.24022 8.85363 7.14645C8.75987 7.05268 8.63269 7 8.50008 7C8.36747 7 8.24029 7.05268 8.14653 7.14645C8.05276 7.24022 8.00008 7.36739 8.00008 7.5V8.5C8.00011 8.6326 8.0528 8.75976 8.14658 8.8535L8.64658 9.3535C8.74034 9.44724 8.8675 9.4999 9.00008 9.4999C9.13266 9.4999 9.25982 9.44724 9.35358 9.3535ZM1.00008 11.5C1.00134 10.5813 1.30742 9.68898 1.87033 8.96292C2.43324 8.23687 3.22116 7.71812 4.11058 7.488C4.17466 7.47349 4.23526 7.4465 4.28892 7.40857C4.34257 7.37064 4.38823 7.32251 4.42328 7.26694C4.45834 7.21136 4.4821 7.14942 4.49322 7.08466C4.50434 7.0199 4.50259 6.95359 4.48808 6.8895C4.47357 6.82542 4.44658 6.76482 4.40865 6.71116C4.37072 6.65751 4.32259 6.61185 4.26701 6.5768C4.21144 6.54174 4.1495 6.51798 4.08474 6.50686C4.01998 6.49574 3.95367 6.49749 3.88958 6.512C2.7751 6.78547 1.78521 7.42635 1.07957 8.33129C0.37392 9.23623 -0.00635131 10.3525 8.02619e-05 11.5C8.02619e-05 11.6326 0.0527587 11.7598 0.146527 11.8536C0.240295 11.9473 0.367472 12 0.50008 12C0.632689 12 0.759866 11.9473 0.853634 11.8536C0.947402 11.7598 1.00008 11.6326 1.00008 11.5ZM4.23708 5.5C3.69318 5.5 3.1615 5.33872 2.70926 5.03654C2.25703 4.73437 1.90455 4.30488 1.69641 3.80238C1.48827 3.29988 1.43381 2.74695 1.53992 2.2135C1.64603 1.68006 1.90794 1.19005 2.29254 0.805458C2.67713 0.420863 3.16713 0.158951 3.70058 0.0528417C4.23403 -0.0532677 4.78696 0.00119154 5.28946 0.209333C5.79196 0.417474 6.22145 0.769948 6.52362 1.22218C6.8258 1.67442 6.98708 2.2061 6.98708 2.75C6.98629 3.4791 6.6963 4.17812 6.18075 4.69367C5.66519 5.20922 4.96618 5.49921 4.23708 5.5ZM4.23708 1C3.89096 1 3.55262 1.10264 3.26483 1.29493C2.97705 1.48722 2.75274 1.76053 2.62029 2.08031C2.48784 2.40008 2.45318 2.75194 2.52071 3.09141C2.58823 3.43088 2.7549 3.7427 2.99964 3.98744C3.24439 4.23218 3.55621 4.39885 3.89567 4.46638C4.23514 4.5339 4.58701 4.49924 4.90678 4.36679C5.22655 4.23434 5.49986 4.01004 5.69215 3.72225C5.88444 3.43446 5.98708 3.09612 5.98708 2.75C5.98708 2.28587 5.80271 1.84075 5.47452 1.51256C5.14633 1.18438 4.70121 1 4.23708 1Z" fill="#6F56B6"/>
</g>
<defs>
<clipPath id="clip0_4978_25118">
<rect width="12" height="12" fill="white"/>
</clipPath>
</defs>
</svg>
