<svg width="14" height="16" viewBox="0 0 14 16" fill="none" xmlns="http://www.w3.org/2000/svg">
<path d="M10.3334 9.33333C10.3334 9.51014 10.2632 9.67971 10.1382 9.80473C10.0131 9.92975 9.84358 9.99999 9.66677 9.99999H4.33344C4.15662 9.99999 3.98706 9.92975 3.86203 9.80473C3.73701 9.67971 3.66677 9.51014 3.66677 9.33333C3.66677 9.15652 3.73701 8.98695 3.86203 8.86192C3.98706 8.7369 4.15662 8.66666 4.33344 8.66666H9.66677C9.84358 8.66666 10.0131 8.7369 10.1382 8.86192C10.2632 8.98695 10.3334 9.15652 10.3334 9.33333ZM7.66677 11.3333H4.33344C4.15662 11.3333 3.98706 11.4036 3.86203 11.5286C3.73701 11.6536 3.66677 11.8232 3.66677 12C3.66677 12.1768 3.73701 12.3464 3.86203 12.4714C3.98706 12.5964 4.15662 12.6667 4.33344 12.6667H7.66677C7.84358 12.6667 8.01315 12.5964 8.13817 12.4714C8.2632 12.3464 8.33344 12.1768 8.33344 12C8.33344 11.8232 8.2632 11.6536 8.13817 11.5286C8.01315 11.4036 7.84358 11.3333 7.66677 11.3333ZM13.6668 6.98999V12.6667C13.6657 13.5504 13.3142 14.3976 12.6893 15.0225C12.0644 15.6474 11.2172 15.9989 10.3334 16H3.66677C2.78304 15.9989 1.93581 15.6474 1.31091 15.0225C0.686023 14.3976 0.334494 13.5504 0.333435 12.6667V3.33333C0.334494 2.4496 0.686023 1.60236 1.31091 0.977472C1.93581 0.35258 2.78304 0.00105105 3.66677 -7.5224e-06H6.67677C7.28985 -0.00158547 7.89716 0.118384 8.46358 0.352965C9.03001 0.587546 9.54432 0.932085 9.97677 1.36666L12.2994 3.69066C12.7343 4.12282 13.079 4.63696 13.3137 5.20331C13.5484 5.76965 13.6684 6.37694 13.6668 6.98999ZM9.0341 2.30933C8.82429 2.1061 8.58872 1.93128 8.33344 1.78933V4.66666C8.33344 4.84347 8.40367 5.01304 8.5287 5.13806C8.65372 5.26309 8.82329 5.33333 9.0001 5.33333H11.8774C11.7354 5.07812 11.5603 4.84276 11.3568 4.63333L9.0341 2.30933ZM12.3334 6.98999C12.3334 6.87999 12.3121 6.77466 12.3021 6.66666H9.0001C8.46967 6.66666 7.96096 6.45595 7.58589 6.08087C7.21082 5.7058 7.0001 5.19709 7.0001 4.66666V1.36466C6.8921 1.35466 6.7861 1.33333 6.67677 1.33333H3.66677C3.13634 1.33333 2.62763 1.54404 2.25255 1.91911C1.87748 2.29419 1.66677 2.80289 1.66677 3.33333V12.6667C1.66677 13.1971 1.87748 13.7058 2.25255 14.0809C2.62763 14.4559 3.13634 14.6667 3.66677 14.6667H10.3334C10.8639 14.6667 11.3726 14.4559 11.7476 14.0809C12.1227 13.7058 12.3334 13.1971 12.3334 12.6667V6.98999Z" fill="#374957"/>
</svg>
