<svg width="41" height="40" viewBox="0 0 41 40" fill="none" xmlns="http://www.w3.org/2000/svg">
<g clip-path="url(#clip0_233_24888)">
<path d="M18.8333 20C19.2754 20 19.6993 20.1756 20.0118 20.4882C20.3244 20.8007 20.5 21.2246 20.5 21.6667C20.5 22.1087 20.3244 22.5326 20.0118 22.8452C19.6993 23.1577 19.2754 23.3333 18.8333 23.3333H13.8333C13.3913 23.3333 12.9674 23.1577 12.6548 22.8452C12.3423 22.5326 12.1667 22.1087 12.1667 21.6667C12.1667 21.2246 12.3423 20.8007 12.6548 20.4882C12.9674 20.1756 13.3913 20 13.8333 20H18.8333ZM28.8333 15C28.8333 14.558 28.6577 14.134 28.3452 13.8215C28.0326 13.5089 27.6087 13.3333 27.1667 13.3333H13.8333C13.3913 13.3333 12.9674 13.5089 12.6548 13.8215C12.3423 14.134 12.1667 14.558 12.1667 15C12.1667 15.442 12.3423 15.8659 12.6548 16.1785C12.9674 16.4911 13.3913 16.6667 13.8333 16.6667H27.1667C27.6087 16.6667 28.0326 16.4911 28.3452 16.1785C28.6577 15.8659 28.8333 15.442 28.8333 15ZM13.8333 10H27.1667C27.6087 10 28.0326 9.8244 28.3452 9.51184C28.6577 9.19928 28.8333 8.77536 28.8333 8.33333C28.8333 7.89131 28.6577 7.46738 28.3452 7.15482C28.0326 6.84226 27.6087 6.66667 27.1667 6.66667H13.8333C13.3913 6.66667 12.9674 6.84226 12.6548 7.15482C12.3423 7.46738 12.1667 7.89131 12.1667 8.33333C12.1667 8.77536 12.3423 9.19928 12.6548 9.51184C12.9674 9.8244 13.3913 10 13.8333 10ZM33.8333 32.4067V38.795C33.8335 39.0328 33.763 39.2652 33.631 39.4629C33.499 39.6606 33.3113 39.8147 33.0916 39.9057C32.872 39.9967 32.6303 40.0205 32.3971 39.9741C32.1639 39.9277 31.9497 39.8132 31.7817 39.645L30.5 38.365L29.2183 39.645C29.0503 39.8132 28.8361 39.9277 28.6029 39.9741C28.3698 40.0205 28.128 39.9967 27.9084 39.9057C27.6887 39.8147 27.501 39.6606 27.369 39.4629C27.237 39.2652 27.1666 39.0328 27.1667 38.795V32.4067C25.8956 31.6764 24.9017 30.5462 24.3397 29.1923C23.7777 27.8383 23.6793 26.3365 24.0597 24.9208C24.44 23.505 25.2779 22.2548 26.4427 21.3648C27.6076 20.4748 29.0341 19.9949 30.5 20C31.0634 20.007 31.6236 20.0866 32.1667 20.2367V8.33333C32.1667 7.00725 31.6399 5.73548 30.7022 4.7978C29.7645 3.86012 28.4928 3.33333 27.1667 3.33333H13.8333C12.5073 3.33333 11.2355 3.86012 10.2978 4.7978C9.36012 5.73548 8.83333 7.00725 8.83333 8.33333V28.3333C8.83333 29.6594 9.36012 30.9312 10.2978 31.8689C11.2355 32.8065 12.5073 33.3333 13.8333 33.3333H22.1667C22.6087 33.3333 23.0326 33.5089 23.3452 33.8215C23.6577 34.134 23.8333 34.558 23.8333 35C23.8333 35.442 23.6577 35.866 23.3452 36.1785C23.0326 36.4911 22.6087 36.6667 22.1667 36.6667H13.8333C11.624 36.664 9.50593 35.7852 7.9437 34.223C6.38147 32.6607 5.50265 30.5427 5.5 28.3333V8.33333C5.50265 6.12401 6.38147 4.00593 7.9437 2.4437C9.50593 0.88147 11.624 0.00264643 13.8333 0L27.1667 0C29.376 0.00264643 31.4941 0.88147 33.0563 2.4437C34.6185 4.00593 35.4974 6.12401 35.5 8.33333V22.3033C36.1529 23.0365 36.6335 23.9064 36.9067 24.8493C37.1799 25.7922 37.2388 26.7843 37.079 27.7529C36.9192 28.7216 36.5448 29.6422 35.9832 30.4474C35.4216 31.2526 34.6871 31.922 33.8333 32.4067ZM33.8333 26.6667C33.8333 26.0074 33.6378 25.3629 33.2716 24.8148C32.9053 24.2666 32.3847 23.8394 31.7756 23.5871C31.1665 23.3348 30.4963 23.2688 29.8497 23.3974C29.2031 23.526 28.6092 23.8435 28.143 24.3096C27.6768 24.7758 27.3593 25.3698 27.2307 26.0164C27.1021 26.663 27.1681 27.3332 27.4204 27.9423C27.6727 28.5514 28.0999 29.072 28.6481 29.4382C29.1963 29.8045 29.8407 30 30.5 30C31.3841 30 32.2319 29.6488 32.857 29.0237C33.4821 28.3986 33.8333 27.5507 33.8333 26.6667Z" fill="#FFAB00"/>
</g>
<defs>
<clipPath id="clip0_233_24888">
<rect width="40" height="40" fill="white" transform="translate(0.5)"/>
</clipPath>
</defs>
</svg>
