<svg width="41" height="40" viewBox="0 0 41 40" fill="none" xmlns="http://www.w3.org/2000/svg">
<g clip-path="url(#clip0_233_24891)">
<path d="M40.5 19.1667C40.496 18.0431 40.2382 16.9348 39.7459 15.9247C39.2535 14.9146 38.5394 14.0288 37.6567 13.3334C38.8778 12.3708 39.7681 11.051 40.2032 9.55813C40.6383 8.0653 40.5966 6.47388 40.0839 5.00588C39.5712 3.53788 38.613 2.26652 37.3432 1.36915C36.0733 0.471788 34.555 -0.00682823 33 7.36084e-05H8.00002C6.44508 -0.00682823 4.92677 0.471788 3.65688 1.36915C2.38699 2.26652 1.42887 3.53788 0.916173 5.00588C0.403475 6.47388 0.361771 8.0653 0.796879 9.55813C1.23199 11.051 2.12221 12.3708 3.34335 13.3334C2.45759 14.026 1.7412 14.9113 1.2485 15.922C0.755798 16.9327 0.499738 18.0423 0.499738 19.1667C0.499738 20.2911 0.755798 21.4008 1.2485 22.4115C1.7412 23.4222 2.45759 24.3074 3.34335 25.0001C2.12221 25.9627 1.23199 27.2825 0.796879 28.7753C0.361771 30.2682 0.403475 31.8596 0.916173 33.3276C1.42887 34.7956 2.38699 36.067 3.65688 36.9643C4.92677 37.8617 6.44508 38.3403 8.00002 38.3334H33C34.555 38.3403 36.0733 37.8617 37.3432 36.9643C38.613 36.067 39.5712 34.7956 40.0839 33.3276C40.5966 31.8596 40.6383 30.2682 40.2032 28.7753C39.7681 27.2825 38.8778 25.9627 37.6567 25.0001C38.5394 24.3047 39.2535 23.4189 39.7459 22.4088C40.2382 21.3987 40.496 20.2904 40.5 19.1667ZM3.83335 7.50007C3.83335 6.395 4.27234 5.3352 5.05374 4.55379C5.83514 3.77239 6.89495 3.33341 8.00002 3.33341H8.83335V5.00007C8.83335 5.4421 9.00895 5.86602 9.32151 6.17858C9.63407 6.49115 10.058 6.66674 10.5 6.66674C10.942 6.66674 11.366 6.49115 11.6785 6.17858C11.9911 5.86602 12.1667 5.4421 12.1667 5.00007V3.33341H15.5V5.00007C15.5 5.4421 15.6756 5.86602 15.9882 6.17858C16.3007 6.49115 16.7247 6.66674 17.1667 6.66674C17.6087 6.66674 18.0326 6.49115 18.3452 6.17858C18.6578 5.86602 18.8334 5.4421 18.8334 5.00007V3.33341H33C34.1051 3.33341 35.1649 3.77239 35.9463 4.55379C36.7277 5.3352 37.1667 6.395 37.1667 7.50007C37.1667 8.60514 36.7277 9.66495 35.9463 10.4464C35.1649 11.2278 34.1051 11.6667 33 11.6667H8.00002C6.89495 11.6667 5.83514 11.2278 5.05374 10.4464C4.27234 9.66495 3.83335 8.60514 3.83335 7.50007ZM37.1667 30.8334C37.1667 31.9385 36.7277 32.9983 35.9463 33.7797C35.1649 34.5611 34.1051 35.0001 33 35.0001H8.00002C6.89495 35.0001 5.83514 34.5611 5.05374 33.7797C4.27234 32.9983 3.83335 31.9385 3.83335 30.8334C3.83335 29.7283 4.27234 28.6685 5.05374 27.8871C5.83514 27.1057 6.89495 26.6667 8.00002 26.6667H8.83335V28.3334C8.83335 28.7754 9.00895 29.1994 9.32151 29.5119C9.63407 29.8245 10.058 30.0001 10.5 30.0001C10.942 30.0001 11.366 29.8245 11.6785 29.5119C11.9911 29.1994 12.1667 28.7754 12.1667 28.3334V26.6667H15.5V28.3334C15.5 28.7754 15.6756 29.1994 15.9882 29.5119C16.3007 29.8245 16.7247 30.0001 17.1667 30.0001C17.6087 30.0001 18.0326 29.8245 18.3452 29.5119C18.6578 29.1994 18.8334 28.7754 18.8334 28.3334V26.6667H33C34.1051 26.6667 35.1649 27.1057 35.9463 27.8871C36.7277 28.6685 37.1667 29.7283 37.1667 30.8334ZM8.00002 23.3334C6.89495 23.3334 5.83514 22.8944 5.05374 22.113C4.27234 21.3316 3.83335 20.2718 3.83335 19.1667C3.83335 18.0617 4.27234 17.0019 5.05374 16.2205C5.83514 15.4391 6.89495 15.0001 8.00002 15.0001H8.83335V16.6667C8.83335 17.1088 9.00895 17.5327 9.32151 17.8452C9.63407 18.1578 10.058 18.3334 10.5 18.3334C10.942 18.3334 11.366 18.1578 11.6785 17.8452C11.9911 17.5327 12.1667 17.1088 12.1667 16.6667V15.0001H15.5V16.6667C15.5 17.1088 15.6756 17.5327 15.9882 17.8452C16.3007 18.1578 16.7247 18.3334 17.1667 18.3334C17.6087 18.3334 18.0326 18.1578 18.3452 17.8452C18.6578 17.5327 18.8334 17.1088 18.8334 16.6667V15.0001H33C34.1051 15.0001 35.1649 15.4391 35.9463 16.2205C36.7277 17.0019 37.1667 18.0617 37.1667 19.1667C37.1667 20.2718 36.7277 21.3316 35.9463 22.113C35.1649 22.8944 34.1051 23.3334 33 23.3334H8.00002Z" fill="#FFAB00"/>
</g>
<defs>
<clipPath id="clip0_233_24891">
<rect width="40" height="40" fill="white" transform="translate(0.5)"/>
</clipPath>
</defs>
</svg>
