<svg width="40" height="40" viewBox="0 0 40 40" fill="none" xmlns="http://www.w3.org/2000/svg">
<g clip-path="url(#clip0_233_24894)">
<path d="M13.3333 0H6.66667C4.89856 0 3.20286 0.702379 1.95262 1.95262C0.702379 3.20286 0 4.89856 0 6.66667L0 8.33333C0 10.1014 0.702379 11.7971 1.95262 13.0474C3.20286 14.2976 4.89856 15 6.66667 15H8.33333V18.3333H5C4.55797 18.3333 4.13405 18.5089 3.82149 18.8215C3.50893 19.134 3.33333 19.558 3.33333 20C3.33333 20.442 3.50893 20.8659 3.82149 21.1785C4.13405 21.4911 4.55797 21.6667 5 21.6667H15C15.442 21.6667 15.8659 21.4911 16.1785 21.1785C16.4911 20.8659 16.6667 20.442 16.6667 20C16.6667 19.558 16.4911 19.134 16.1785 18.8215C15.8659 18.5089 15.442 18.3333 15 18.3333H11.6667V15H13.3333C15.1014 15 16.7971 14.2976 18.0474 13.0474C19.2976 11.7971 20 10.1014 20 8.33333V6.66667C20 4.89856 19.2976 3.20286 18.0474 1.95262C16.7971 0.702379 15.1014 0 13.3333 0V0ZM16.6667 8.33333C16.6667 9.21739 16.3155 10.0652 15.6904 10.6904C15.0652 11.3155 14.2174 11.6667 13.3333 11.6667H6.66667C5.78261 11.6667 4.93476 11.3155 4.30964 10.6904C3.68452 10.0652 3.33333 9.21739 3.33333 8.33333V6.66667C3.33333 5.78261 3.68452 4.93476 4.30964 4.30964C4.93476 3.68452 5.78261 3.33333 6.66667 3.33333H13.3333C14.2174 3.33333 15.0652 3.68452 15.6904 4.30964C16.3155 4.93476 16.6667 5.78261 16.6667 6.66667V8.33333ZM33.3333 18.3333H30C28.2319 18.3333 26.5362 19.0357 25.286 20.286C24.0357 21.5362 23.3333 23.2319 23.3333 25V33.3333C23.3333 35.1014 24.0357 36.7971 25.286 38.0474C26.5362 39.2976 28.2319 40 30 40H33.3333C35.1014 40 36.7971 39.2976 38.0474 38.0474C39.2976 36.7971 40 35.1014 40 33.3333V25C40 23.2319 39.2976 21.5362 38.0474 20.286C36.7971 19.0357 35.1014 18.3333 33.3333 18.3333ZM36.6667 33.3333C36.6667 34.2174 36.3155 35.0652 35.6904 35.6904C35.0652 36.3155 34.2174 36.6667 33.3333 36.6667H30C29.1159 36.6667 28.2681 36.3155 27.643 35.6904C27.0179 35.0652 26.6667 34.2174 26.6667 33.3333V25C26.6667 24.1159 27.0179 23.2681 27.643 22.643C28.2681 22.0179 29.1159 21.6667 30 21.6667H33.3333C34.2174 21.6667 35.0652 22.0179 35.6904 22.643C36.3155 23.2681 36.6667 24.1159 36.6667 25V33.3333ZM23.3333 6.66667C23.3333 6.22464 23.5089 5.80072 23.8215 5.48816C24.134 5.17559 24.558 5 25 5H28.3333C29.6594 5 30.9312 5.52678 31.8689 6.46447C32.8065 7.40215 33.3333 8.67392 33.3333 10V13.3333C33.3333 13.7754 33.1577 14.1993 32.8452 14.5118C32.5326 14.8244 32.1087 15 31.6667 15C31.2246 15 30.8007 14.8244 30.4882 14.5118C30.1756 14.1993 30 13.7754 30 13.3333V10C30 9.55797 29.8244 9.13405 29.5118 8.82149C29.1993 8.50893 28.7754 8.33333 28.3333 8.33333H25C24.558 8.33333 24.134 8.15774 23.8215 7.84518C23.5089 7.53262 23.3333 7.10869 23.3333 6.66667ZM20 33.3333C20 33.7754 19.8244 34.1993 19.5118 34.5118C19.1993 34.8244 18.7754 35 18.3333 35H13.3333C12.0073 35 10.7355 34.4732 9.7978 33.5355C8.86012 32.5979 8.33333 31.3261 8.33333 30V26.6667C8.33333 26.2246 8.50893 25.8007 8.82149 25.4882C9.13405 25.1756 9.55797 25 10 25C10.442 25 10.8659 25.1756 11.1785 25.4882C11.4911 25.8007 11.6667 26.2246 11.6667 26.6667V30C11.6667 30.442 11.8423 30.866 12.1548 31.1785C12.4674 31.4911 12.8913 31.6667 13.3333 31.6667H18.3333C18.7754 31.6667 19.1993 31.8423 19.5118 32.1548C19.8244 32.4674 20 32.8913 20 33.3333ZM33.3333 33.3333C33.3333 33.663 33.2356 33.9852 33.0524 34.2593C32.8693 34.5334 32.609 34.747 32.3045 34.8731C31.9999 34.9993 31.6648 35.0323 31.3415 34.968C31.0182 34.9037 30.7212 34.7449 30.4882 34.5118C30.2551 34.2788 30.0963 33.9818 30.032 33.6585C29.9677 33.3352 30.0007 33.0001 30.1269 32.6955C30.253 32.391 30.4666 32.1307 30.7407 31.9475C31.0148 31.7644 31.337 31.6667 31.6667 31.6667C32.1087 31.6667 32.5326 31.8423 32.8452 32.1548C33.1577 32.4674 33.3333 32.8913 33.3333 33.3333Z" fill="#FFAB00"/>
</g>
<defs>
<clipPath id="clip0_233_24894">
<rect width="40" height="40" fill="white"/>
</clipPath>
</defs>
</svg>
