<svg width="40" height="40" viewBox="0 0 40 40" fill="none" xmlns="http://www.w3.org/2000/svg">
<g clip-path="url(#clip0_233_24898)">
<path d="M24.3338 35.5004C23.8338 35.8771 23.3022 36.2737 22.8505 36.6671H26.6672C27.1092 36.6671 27.5331 36.8427 27.8457 37.1552C28.1582 37.4678 28.3338 37.8917 28.3338 38.3337C28.3338 38.7758 28.1582 39.1997 27.8457 39.5123C27.5331 39.8248 27.1092 40.0004 26.6672 40.0004H20.0005C19.5585 40.0004 19.1345 39.8248 18.822 39.5123C18.5094 39.1997 18.3338 38.7758 18.3338 38.3337C18.3338 35.8337 20.4588 34.2404 22.3338 32.8337C23.5838 31.8971 25.0005 30.8337 25.0005 30.0004C25.0005 29.5584 24.8249 29.1345 24.5123 28.8219C24.1998 28.5093 23.7758 28.3337 23.3338 28.3337C22.8918 28.3337 22.4679 28.5093 22.1553 28.8219C21.8427 29.1345 21.6672 29.5584 21.6672 30.0004C21.6672 30.4424 21.4916 30.8664 21.179 31.1789C20.8664 31.4915 20.4425 31.6671 20.0005 31.6671C19.5585 31.6671 19.1345 31.4915 18.822 31.1789C18.5094 30.8664 18.3338 30.4424 18.3338 30.0004C18.3338 28.6743 18.8606 27.4026 19.7983 26.4649C20.736 25.5272 22.0077 25.0004 23.3338 25.0004C24.6599 25.0004 25.9317 25.5272 26.8694 26.4649C27.807 27.4026 28.3338 28.6743 28.3338 30.0004C28.3338 32.5004 26.2088 34.0937 24.3338 35.5004ZM38.3338 25.0004C37.8918 25.0004 37.4679 25.176 37.1553 25.4886C36.8427 25.8011 36.6672 26.225 36.6672 26.6671V31.6671H35.0005C34.5585 31.6671 34.1345 31.4915 33.822 31.1789C33.5094 30.8664 33.3338 30.4424 33.3338 30.0004V26.6671C33.3338 26.225 33.1582 25.8011 32.8457 25.4886C32.5331 25.176 32.1092 25.0004 31.6672 25.0004C31.2251 25.0004 30.8012 25.176 30.4886 25.4886C30.1761 25.8011 30.0005 26.225 30.0005 26.6671V30.0004C30.0005 31.3265 30.5273 32.5983 31.465 33.5359C32.4026 34.4736 33.6744 35.0004 35.0005 35.0004H36.6672V38.3337C36.6672 38.7758 36.8427 39.1997 37.1553 39.5123C37.4679 39.8248 37.8918 40.0004 38.3338 40.0004C38.7758 40.0004 39.1998 39.8248 39.5123 39.5123C39.8249 39.1997 40.0005 38.7758 40.0005 38.3337V26.6671C40.0005 26.225 39.8249 25.8011 39.5123 25.4886C39.1998 25.176 38.7758 25.0004 38.3338 25.0004ZM21.6672 20.0004V11.6671C21.6672 11.225 21.4916 10.8011 21.179 10.4886C20.8664 10.176 20.4425 10.0004 20.0005 10.0004C19.5585 10.0004 19.1345 10.176 18.822 10.4886C18.5094 10.8011 18.3338 11.225 18.3338 11.6671V18.3337H13.3338C12.8918 18.3337 12.4679 18.5093 12.1553 18.8219C11.8427 19.1345 11.6671 19.5584 11.6671 20.0004C11.6671 20.4424 11.8427 20.8664 12.1553 21.1789C12.4679 21.4915 12.8918 21.6671 13.3338 21.6671H20.0005C20.4425 21.6671 20.8664 21.4915 21.179 21.1789C21.4916 20.8664 21.6672 20.4424 21.6672 20.0004ZM38.3338 3.33374C37.8918 3.33374 37.4679 3.50933 37.1553 3.8219C36.8427 4.13446 36.6672 4.55838 36.6672 5.00041V8.95707C34.9306 6.33636 32.6007 4.16194 29.8665 2.61024C27.1322 1.05855 24.0707 0.173281 20.9303 0.0262739C17.7899 -0.120733 14.6591 0.474661 11.7919 1.76415C8.92465 3.05363 6.40179 5.00089 4.42801 7.44791C2.45423 9.89494 1.08512 12.7728 0.431773 15.848C-0.221578 18.9232 -0.140767 22.1091 0.667648 25.1472C1.47606 28.1854 2.98931 30.9901 5.08461 33.3339C7.17991 35.6778 9.79824 37.4946 12.7271 38.6371C12.9207 38.7117 13.1264 38.7501 13.3338 38.7504C13.7227 38.751 14.0996 38.6156 14.3992 38.3675C14.6988 38.1195 14.9022 37.7745 14.9742 37.3923C15.0463 37.0101 14.9823 36.6148 14.7935 36.2747C14.6047 35.9347 14.303 35.6714 13.9405 35.5304C11.4539 34.5689 9.23418 33.0248 7.46779 31.0279C5.7014 29.031 4.43983 26.6395 3.789 24.0541C3.13816 21.4687 3.11706 18.7649 3.72744 16.1696C4.33783 13.5744 5.5619 11.1635 7.29689 9.13919C9.03189 7.11494 11.2272 5.53643 13.6985 4.5362C16.1698 3.53596 18.845 3.14317 21.4995 3.39082C24.1541 3.63846 26.7105 4.5193 28.9541 5.95939C31.1978 7.39949 33.0632 9.35682 34.3938 11.6671H30.0005C29.5585 11.6671 29.1345 11.8427 28.822 12.1552C28.5094 12.4678 28.3338 12.8917 28.3338 13.3337C28.3338 13.7758 28.5094 14.1997 28.822 14.5123C29.1345 14.8248 29.5585 15.0004 30.0005 15.0004H35.0005C36.3266 15.0004 37.5983 14.4736 38.536 13.5359C39.4737 12.5983 40.0005 11.3265 40.0005 10.0004V5.00041C40.0005 4.55838 39.8249 4.13446 39.5123 3.8219C39.1998 3.50933 38.7758 3.33374 38.3338 3.33374Z" fill="#FFAB00"/>
</g>
<defs>
<clipPath id="clip0_233_24898">
<rect width="40" height="40" fill="white"/>
</clipPath>
</defs>
</svg>
