<svg width="40" height="40" viewBox="0 0 40 40" fill="none" xmlns="http://www.w3.org/2000/svg">
<g clip-path="url(#clip0_233_24902)">
<path d="M40 20C40 20.442 39.8244 20.8659 39.5118 21.1785C39.1993 21.4911 38.7754 21.6667 38.3333 21.6667C37.8913 21.6667 37.4674 21.4911 37.1548 21.1785C36.8423 20.8659 36.6667 20.442 36.6667 20C36.6618 15.5812 34.9043 11.3448 31.7798 8.22025C28.6552 5.09569 24.4188 3.33819 20 3.33333C19.558 3.33333 19.134 3.15774 18.8215 2.84518C18.5089 2.53262 18.3333 2.10869 18.3333 1.66667C18.3333 1.22464 18.5089 0.800716 18.8215 0.488155C19.134 0.175595 19.558 0 20 0C25.3026 0.00573514 30.3863 2.11471 34.1358 5.8642C37.8853 9.61368 39.9943 14.6974 40 20ZM26.6667 21.6667C27.1087 21.6667 27.5326 21.4911 27.8452 21.1785C28.1577 20.8659 28.3333 20.442 28.3333 20C28.3333 19.558 28.1577 19.134 27.8452 18.8215C27.5326 18.5089 27.1087 18.3333 26.6667 18.3333H22.8717C22.5812 17.834 22.166 17.4188 21.6667 17.1283V11.6667C21.6667 11.2246 21.4911 10.8007 21.1785 10.4882C20.8659 10.1756 20.442 10 20 10C19.558 10 19.134 10.1756 18.8215 10.4882C18.5089 10.8007 18.3333 11.2246 18.3333 11.6667V17.1283C17.8913 17.3829 17.5138 17.7357 17.23 18.1596C16.9462 18.5835 16.7639 19.067 16.697 19.5727C16.6301 20.0783 16.6805 20.5926 16.8444 21.0757C17.0082 21.5588 17.281 21.9976 17.6417 22.3583C18.0024 22.719 18.4412 22.9918 18.9243 23.1556C19.4074 23.3195 19.9217 23.3699 20.4273 23.303C20.933 23.2361 21.4165 23.0538 21.8404 22.77C22.2643 22.4862 22.6171 22.1087 22.8717 21.6667H26.6667ZM3.045 11.3067C2.71537 11.3067 2.39313 11.4044 2.11905 11.5876C1.84497 11.7707 1.63135 12.031 1.5052 12.3355C1.37906 12.6401 1.34605 12.9752 1.41036 13.2985C1.47467 13.6218 1.6334 13.9188 1.86649 14.1518C2.09958 14.3849 2.39655 14.5437 2.71985 14.608C3.04315 14.6723 3.37826 14.6393 3.68281 14.5131C3.98735 14.387 4.24765 14.1734 4.43078 13.8993C4.61392 13.6252 4.71167 13.303 4.71167 12.9733C4.71167 12.5313 4.53607 12.1074 4.22351 11.7948C3.91095 11.4823 3.48703 11.3067 3.045 11.3067ZM3.33333 20C3.33333 19.6704 3.23559 19.3481 3.05245 19.074C2.86931 18.8 2.60902 18.5863 2.30447 18.4602C1.99993 18.3341 1.66482 18.301 1.34152 18.3654C1.01822 18.4297 0.721244 18.5884 0.488156 18.8215C0.255069 19.0546 0.096334 19.3515 0.0320253 19.6748C-0.0322834 19.9981 0.000722135 20.3333 0.126868 20.6378C0.253014 20.9423 0.466635 21.2026 0.740717 21.3858C1.0148 21.5689 1.33703 21.6667 1.66667 21.6667C2.10869 21.6667 2.53262 21.4911 2.84518 21.1785C3.15774 20.8659 3.33333 20.442 3.33333 20ZM20 36.6667C19.6704 36.6667 19.3481 36.7644 19.074 36.9475C18.8 37.1307 18.5863 37.391 18.4602 37.6955C18.3341 38.0001 18.301 38.3352 18.3654 38.6585C18.4297 38.9818 18.5884 39.2788 18.8215 39.5118C19.0546 39.7449 19.3515 39.9037 19.6748 39.968C19.9981 40.0323 20.3333 39.9993 20.6378 39.8731C20.9423 39.747 21.2026 39.5334 21.3858 39.2593C21.5689 38.9852 21.6667 38.663 21.6667 38.3333C21.6667 37.8913 21.4911 37.4674 21.1785 37.1548C20.8659 36.8423 20.442 36.6667 20 36.6667ZM7.035 5.345C6.70537 5.345 6.38313 5.44275 6.10905 5.62588C5.83497 5.80902 5.62135 6.06932 5.4952 6.37386C5.36906 6.6784 5.33605 7.01352 5.40036 7.33682C5.46467 7.66012 5.6234 7.95709 5.85649 8.19018C6.08958 8.42327 6.38655 8.582 6.70985 8.64631C7.03315 8.71062 7.36826 8.67761 7.67281 8.55147C7.97735 8.42532 8.23765 8.2117 8.42078 7.93762C8.60392 7.66354 8.70167 7.3413 8.70167 7.01167C8.70167 6.56964 8.52607 6.14572 8.21351 5.83316C7.90095 5.52059 7.47703 5.345 7.035 5.345ZM12.965 1.40167C12.6354 1.40167 12.3131 1.49942 12.0391 1.68255C11.765 1.86569 11.5513 2.12598 11.4252 2.43053C11.2991 2.73507 11.2661 3.07018 11.3304 3.39348C11.3947 3.71679 11.5534 4.01376 11.7865 4.24684C12.0196 4.47993 12.3165 4.63867 12.6398 4.70298C12.9632 4.76728 13.2983 4.73428 13.6028 4.60813C13.9073 4.48199 14.1676 4.26837 14.3508 3.99428C14.5339 3.7202 14.6317 3.39797 14.6317 3.06833C14.6317 2.62631 14.4561 2.20238 14.1435 1.88982C13.831 1.57726 13.407 1.40167 12.965 1.40167ZM3.045 25.36C2.71537 25.36 2.39313 25.4577 2.11905 25.6409C1.84497 25.824 1.63135 26.0843 1.5052 26.3889C1.37906 26.6934 1.34605 27.0285 1.41036 27.3518C1.47467 27.6751 1.6334 27.9721 1.86649 28.2052C2.09958 28.4383 2.39655 28.597 2.71985 28.6613C3.04315 28.7256 3.37826 28.6926 3.68281 28.5665C3.98735 28.4403 4.24765 28.2267 4.43078 27.9526C4.61392 27.6785 4.71167 27.3563 4.71167 27.0267C4.71167 26.5846 4.53607 26.1607 4.22351 25.8482C3.91095 25.5356 3.48703 25.36 3.045 25.36ZM7.035 31.3217C6.70537 31.3217 6.38313 31.4194 6.10905 31.6026C5.83497 31.7857 5.62135 32.046 5.4952 32.3505C5.36906 32.6551 5.33605 32.9902 5.40036 33.3135C5.46467 33.6368 5.6234 33.9338 5.85649 34.1668C6.08958 34.3999 6.38655 34.5587 6.70985 34.623C7.03315 34.6873 7.36826 34.6543 7.67281 34.5281C7.97735 34.402 8.23765 34.1884 8.42078 33.9143C8.60392 33.6402 8.70167 33.318 8.70167 32.9883C8.70167 32.5463 8.52607 32.1224 8.21351 31.8098C7.90095 31.4973 7.47703 31.3217 7.035 31.3217ZM12.965 35.265C12.6354 35.265 12.3131 35.3627 12.0391 35.5459C11.765 35.729 11.5513 35.9893 11.4252 36.2939C11.2991 36.5984 11.2661 36.9335 11.3304 37.2568C11.3947 37.5801 11.5534 37.8771 11.7865 38.1102C12.0196 38.3433 12.3165 38.502 12.6398 38.5663C12.9632 38.6306 13.2983 38.5976 13.6028 38.4715C13.9073 38.3453 14.1676 38.1317 14.3508 37.8576C14.5339 37.5835 14.6317 37.2613 14.6317 36.9317C14.6317 36.4896 14.4561 36.0657 14.1435 35.7532C13.831 35.4406 13.407 35.265 12.965 35.265ZM36.955 25.36C36.6254 25.36 36.3031 25.4577 36.029 25.6409C35.755 25.824 35.5413 26.0843 35.4152 26.3889C35.2891 26.6934 35.2561 27.0285 35.3204 27.3518C35.3847 27.6751 35.5434 27.9721 35.7765 28.2052C36.0096 28.4383 36.3065 28.597 36.6298 28.6613C36.9531 28.7256 37.2883 28.6926 37.5928 28.5665C37.8973 28.4403 38.1576 28.2267 38.3408 27.9526C38.5239 27.6785 38.6217 27.3563 38.6217 27.0267C38.6217 26.5846 38.4461 26.1607 38.1335 25.8482C37.8209 25.5356 37.397 25.36 36.955 25.36ZM32.965 31.3217C32.6354 31.3217 32.3131 31.4194 32.0391 31.6026C31.765 31.7857 31.5513 32.046 31.4252 32.3505C31.2991 32.6551 31.266 32.9902 31.3304 33.3135C31.3947 33.6368 31.5534 33.9338 31.7865 34.1668C32.0196 34.3999 32.3165 34.5587 32.6399 34.623C32.9632 34.6873 33.2983 34.6543 33.6028 34.5281C33.9073 34.402 34.1676 34.1884 34.3508 33.9143C34.5339 33.6402 34.6317 33.318 34.6317 32.9883C34.6317 32.5463 34.4561 32.1224 34.1435 31.8098C33.831 31.4973 33.407 31.3217 32.965 31.3217ZM27.035 35.265C26.7054 35.265 26.3831 35.3627 26.109 35.5459C25.835 35.729 25.6213 35.9893 25.4952 36.2939C25.3691 36.5984 25.336 36.9335 25.4004 37.2568C25.4647 37.5801 25.6234 37.8771 25.8565 38.1102C26.0896 38.3433 26.3865 38.502 26.7098 38.5663C27.0331 38.6306 27.3683 38.5976 27.6728 38.4715C27.9773 38.3453 28.2376 38.1317 28.4208 37.8576C28.6039 37.5835 28.7017 37.2613 28.7017 36.9317C28.7017 36.4896 28.5261 36.0657 28.2135 35.7532C27.9009 35.4406 27.477 35.265 27.035 35.265Z" fill="#FFAB00"/>
</g>
<defs>
<clipPath id="clip0_233_24902">
<rect width="40" height="40" fill="white"/>
</clipPath>
</defs>
</svg>
