<svg width="40" height="40" viewBox="0 0 40 40" fill="none" xmlns="http://www.w3.org/2000/svg">
<g clip-path="url(#clip0_233_24905)">
<path d="M1.66667 7.9171H6.22667C6.58439 9.23332 7.36529 10.3953 8.44888 11.2236C9.53247 12.052 10.8585 12.5009 12.2225 12.5009C13.5865 12.5009 14.9125 12.052 15.9961 11.2236C17.0797 10.3953 17.8606 9.23332 18.2183 7.9171H38.3333C38.7754 7.9171 39.1993 7.7415 39.5118 7.42894C39.8244 7.11638 40 6.69246 40 6.25043C40 5.8084 39.8244 5.38448 39.5118 5.07192C39.1993 4.75936 38.7754 4.58376 38.3333 4.58376H18.2183C17.8606 3.26755 17.0797 2.10561 15.9961 1.27721C14.9125 0.448819 13.5865 0 12.2225 0C10.8585 0 9.53247 0.448819 8.44888 1.27721C7.36529 2.10561 6.58439 3.26755 6.22667 4.58376H1.66667C1.22464 4.58376 0.800716 4.75936 0.488155 5.07192C0.175595 5.38448 0 5.8084 0 6.25043C0 6.69246 0.175595 7.11638 0.488155 7.42894C0.800716 7.7415 1.22464 7.9171 1.66667 7.9171ZM12.2217 3.33376C12.7985 3.33376 13.3624 3.50482 13.8421 3.82531C14.3217 4.1458 14.6956 4.60132 14.9163 5.13427C15.1371 5.66722 15.1948 6.25367 15.0823 6.81945C14.9698 7.38522 14.692 7.90492 14.2841 8.31283C13.8762 8.72073 13.3565 8.99852 12.7907 9.11106C12.2249 9.2236 11.6385 9.16584 11.1055 8.94508C10.5726 8.72432 10.117 8.35049 9.79655 7.87084C9.47606 7.3912 9.305 6.82729 9.305 6.25043C9.30588 5.47715 9.61346 4.7358 10.1602 4.18901C10.707 3.64222 11.4484 3.33465 12.2217 3.33376Z" fill="#FFAB00"/>
<path d="M38.3333 18.3318H33.7733C33.4162 17.0153 32.6356 15.853 31.5521 15.0242C30.4686 14.1955 29.1424 13.7465 27.7783 13.7465C26.4142 13.7465 25.0881 14.1955 24.0045 15.0242C22.921 15.853 22.1405 17.0153 21.7833 18.3318H1.66667C1.22464 18.3318 0.800716 18.5074 0.488155 18.82C0.175595 19.1326 0 19.5565 0 19.9985C0 20.4405 0.175595 20.8645 0.488155 21.177C0.800716 21.4896 1.22464 21.6652 1.66667 21.6652H21.7833C22.1405 22.9817 22.921 24.144 24.0045 24.9728C25.0881 25.8015 26.4142 26.2506 27.7783 26.2506C29.1424 26.2506 30.4686 25.8015 31.5521 24.9728C32.6356 24.144 33.4162 22.9817 33.7733 21.6652H38.3333C38.7754 21.6652 39.1993 21.4896 39.5118 21.177C39.8244 20.8645 40 20.4405 40 19.9985C40 19.5565 39.8244 19.1326 39.5118 18.82C39.1993 18.5074 38.7754 18.3318 38.3333 18.3318ZM27.7783 22.9152C27.2015 22.9152 26.6376 22.7441 26.1579 22.4236C25.6783 22.1031 25.3044 21.6476 25.0837 21.1147C24.8629 20.5817 24.8052 19.9953 24.9177 19.4295C25.0302 18.8637 25.308 18.344 25.7159 17.9361C26.1238 17.5282 26.6435 17.2504 27.2093 17.1379C27.7751 17.0253 28.3615 17.0831 28.8945 17.3039C29.4274 17.5246 29.883 17.8985 30.2035 18.3781C30.5239 18.8577 30.695 19.4216 30.695 19.9985C30.6941 20.7718 30.3865 21.5131 29.8398 22.0599C29.293 22.6067 28.5516 22.9143 27.7783 22.9152Z" fill="#FFAB00"/>
<path d="M38.3333 32.0839H18.2183C17.8606 30.7677 17.0797 29.6057 15.9961 28.7773C14.9125 27.9489 13.5865 27.5001 12.2225 27.5001C10.8585 27.5001 9.53247 27.9489 8.44888 28.7773C7.36529 29.6057 6.58439 30.7677 6.22667 32.0839H1.66667C1.22464 32.0839 0.800716 32.2595 0.488155 32.572C0.175595 32.8846 0 33.3085 0 33.7505C0 34.1926 0.175595 34.6165 0.488155 34.929C0.800716 35.2416 1.22464 35.4172 1.66667 35.4172H6.22667C6.58439 36.7334 7.36529 37.8953 8.44888 38.7237C9.53247 39.5521 10.8585 40.0009 12.2225 40.0009C13.5865 40.0009 14.9125 39.5521 15.9961 38.7237C17.0797 37.8953 17.8606 36.7334 18.2183 35.4172H38.3333C38.7754 35.4172 39.1993 35.2416 39.5118 34.929C39.8244 34.6165 40 34.1926 40 33.7505C40 33.3085 39.8244 32.8846 39.5118 32.572C39.1993 32.2595 38.7754 32.0839 38.3333 32.0839ZM12.2217 36.6672C11.6448 36.6672 11.0809 36.4961 10.6013 36.1756C10.1216 35.8552 9.74777 35.3996 9.52702 34.8667C9.30626 34.3337 9.2485 33.7473 9.36104 33.1815C9.47358 32.6157 9.75137 32.096 10.1593 31.6881C10.5672 31.2802 11.0869 31.0025 11.6527 30.8899C12.2184 30.7774 12.8049 30.8351 13.3378 31.0559C13.8708 31.2766 14.3263 31.6505 14.6468 32.1301C14.9673 32.6098 15.1383 33.1737 15.1383 33.7505C15.137 34.5237 14.8293 35.2648 14.2826 35.8115C13.7359 36.3582 12.9948 36.6659 12.2217 36.6672Z" fill="#FFAB00"/>
</g>
<defs>
<clipPath id="clip0_233_24905">
<rect width="40" height="40" fill="white"/>
</clipPath>
</defs>
</svg>
