<svg width="40" height="40" viewBox="0 0 40 40" fill="none" xmlns="http://www.w3.org/2000/svg">
<g clip-path="url(#clip0_233_24909)">
<path d="M33.2497 9.22732L27.4397 3.41732C26.359 2.33078 25.0735 1.46936 23.6577 0.88289C22.2419 0.296423 20.7238 -0.00344058 19.1913 0.000651678H11.6663C9.45702 0.00329811 7.33894 0.882122 5.77671 2.44435C4.21448 4.00658 3.33565 6.12466 3.33301 8.33399V31.6673C3.33565 33.8766 4.21448 35.9947 5.77671 37.557C7.33894 39.1192 9.45702 39.998 11.6663 40.0007H28.333C30.5423 39.998 32.6604 39.1192 34.2226 37.557C35.7849 35.9947 36.6637 33.8766 36.6663 31.6673V17.4757C36.6704 15.9432 36.3706 14.4251 35.7841 13.0093C35.1976 11.5935 34.3362 10.308 33.2497 9.22732ZM30.893 11.584C31.4014 12.108 31.839 12.6963 32.1947 13.334H24.9997C24.5576 13.334 24.1337 13.1584 23.8212 12.8458C23.5086 12.5333 23.333 12.1093 23.333 11.6673V4.47232C23.9707 4.82796 24.559 5.26557 25.083 5.77399L30.893 11.584ZM33.333 31.6673C33.333 32.9934 32.8062 34.2652 31.8685 35.2029C30.9309 36.1405 29.6591 36.6673 28.333 36.6673H11.6663C10.3403 36.6673 9.06849 36.1405 8.13081 35.2029C7.19313 34.2652 6.66634 32.9934 6.66634 31.6673V8.33399C6.66634 7.0079 7.19313 5.73613 8.13081 4.79845C9.06849 3.86077 10.3403 3.33399 11.6663 3.33399H19.1913C19.4663 3.33399 19.7297 3.38732 19.9997 3.41232V11.6673C19.9997 12.9934 20.5265 14.2652 21.4641 15.2029C22.4018 16.1405 23.6736 16.6673 24.9997 16.6673H33.2547C33.2797 16.9373 33.333 17.2007 33.333 17.4757V31.6673ZM27.873 22.1857C28.1773 22.5058 28.3421 22.9337 28.3312 23.3752C28.3203 23.8168 28.1345 24.236 27.8147 24.5407L21.833 30.2307C20.8927 31.1561 19.6248 31.6725 18.3055 31.6672C16.9862 31.6618 15.7225 31.1353 14.7897 30.2023L12.223 27.9123C11.8928 27.6179 11.6931 27.2044 11.6678 26.7628C11.6552 26.5441 11.6859 26.3251 11.758 26.1183C11.8301 25.9114 11.9422 25.7208 12.088 25.5573C12.2338 25.3938 12.4103 25.2606 12.6076 25.1654C12.8048 25.0701 13.0189 25.0146 13.2375 25.0021C13.6792 24.9768 14.1128 25.1279 14.443 25.4223L17.0847 27.779C17.2359 27.9488 17.4203 28.0859 17.6265 28.1818C17.8327 28.2777 18.0563 28.3304 18.2836 28.3366C18.5109 28.3429 18.7371 28.3026 18.9482 28.2181C19.1594 28.1337 19.351 28.0069 19.5113 27.8457L25.5113 22.1273C25.67 21.9756 25.8571 21.8568 26.0618 21.7776C26.2665 21.6984 26.4849 21.6604 26.7043 21.6658C26.9237 21.6712 27.1399 21.7199 27.3405 21.8091C27.5411 21.8984 27.722 22.0263 27.873 22.1857Z" fill="#FFAB00"/>
</g>
<defs>
<clipPath id="clip0_233_24909">
<rect width="40" height="40" fill="white"/>
</clipPath>
</defs>
</svg>
