<svg width="39" height="37" viewBox="0 0 39 37" fill="none" xmlns="http://www.w3.org/2000/svg">
<path fill-rule="evenodd" clip-rule="evenodd" d="M26.7009 13.6454C26.8875 13.7328 27.052 13.8603 27.1826 14.0186C27.3138 14.1766 27.4078 14.3615 27.4581 14.5599C27.5083 14.7583 27.5135 14.9653 27.4731 15.1659L25.7998 23.4553C25.7357 23.7684 25.5645 24.0499 25.315 24.2523C25.0656 24.4546 24.7532 24.5654 24.4308 24.5658H10.3894L10.7171 26.4079H24.812C25.0585 26.4079 25.295 26.5049 25.4694 26.6777C25.6437 26.8504 25.7416 27.0847 25.7416 27.3289C25.7416 27.5732 25.6437 27.8075 25.4694 27.9802C25.295 28.153 25.0585 28.25 24.812 28.25H9.93733C9.71874 28.25 9.50713 28.1738 9.33967 28.0346C9.1722 27.8954 9.05959 27.7022 9.02161 27.489L6.36857 12.5921H3.42967C3.1831 12.5921 2.94664 12.4951 2.77229 12.3223C2.59795 12.1496 2.5 11.9153 2.5 11.6711C2.5 11.4268 2.59795 11.1925 2.77229 11.0198C2.94664 10.847 3.1831 10.75 3.42967 10.75H7.14833C7.36691 10.75 7.57852 10.8262 7.74599 10.9654C7.91346 11.1046 8.02607 11.2978 8.06405 11.511L8.42023 13.5132H26.1042C26.3106 13.5128 26.5144 13.558 26.7009 13.6454ZM10.9375 33.25C11.973 33.25 12.8125 32.4105 12.8125 31.375C12.8125 30.3395 11.973 29.5 10.9375 29.5C9.90197 29.5 9.0625 30.3395 9.0625 31.375C9.0625 32.4105 9.90197 33.25 10.9375 33.25ZM24.0625 33.25C25.098 33.25 25.9375 32.4105 25.9375 31.375C25.9375 30.3395 25.098 29.5 24.0625 29.5C23.027 29.5 22.1875 30.3395 22.1875 31.375C22.1875 32.4105 23.027 33.25 24.0625 33.25Z" fill="#353535"/>
<rect x="19" width="20" height="20" rx="10" fill="#FFAB00"/>
<path d="M25.598 15V13.661L28.224 10.918C28.744 10.372 29.1427 9.93867 29.42 9.618C29.706 9.28867 29.9053 9.007 30.018 8.773C30.1307 8.539 30.187 8.30067 30.187 8.058C30.187 7.65067 30.057 7.33 29.797 7.096C29.5457 6.862 29.2207 6.745 28.822 6.745C28.406 6.745 28.0463 6.86633 27.743 7.109C27.4397 7.343 27.2187 7.68967 27.08 8.149L25.533 7.668C25.637 7.15667 25.8493 6.71467 26.17 6.342C26.4907 5.96067 26.8807 5.67033 27.34 5.471C27.808 5.263 28.302 5.159 28.822 5.159C29.446 5.159 29.992 5.27167 30.46 5.497C30.9367 5.72233 31.305 6.03867 31.565 6.446C31.8337 6.85333 31.968 7.33 31.968 7.876C31.968 8.22267 31.903 8.565 31.773 8.903C31.643 9.241 31.448 9.58767 31.188 9.943C30.928 10.2897 30.59 10.6797 30.174 11.113L27.899 13.505H32.098V15H25.598Z" fill="white"/>
</svg>
